<?xml version="1.0" encoding="UTF-8" standalone="no"?><svg xmlns="http://www.w3.org/2000/svg" xmlns:xlink="http://www.w3.org/1999/xlink" contentScriptType="application/ecmascript" contentStyleType="text/css" height="467px" preserveAspectRatio="none" style="width:547px;height:467px;" version="1.1" viewBox="0 0 547 467" width="547px" zoomAndPan="magnify"><defs/><g><!--MD5=[540ebe81cd522f86a29871f64de41617]
cluster Phpolar\\CsrfProtection--><polygon fill="#FFFFFF" points="300,372,486,372,493,394.2969,496,394.2969,496,455,300,455,300,372" style="stroke: #000000; stroke-width: 1.5;"/><line style="stroke: #000000; stroke-width: 1.5;" x1="300" x2="493" y1="394.2969" y2="394.2969"/><text fill="#000000" font-family="sans-serif" font-size="14" font-weight="bold" lengthAdjust="spacingAndGlyphs" textLength="180" x="304" y="386.9951">Phpolar\CsrfProtection</text><!--MD5=[b0599d64809b33a47852a51499c9b6df]
cluster Phpolar\\CsrfProtection\\Http--><polygon fill="#FFFFFF" points="271,131,495,131,502,153.2969,525,153.2969,525,348,271,348,271,131" style="stroke: #000000; stroke-width: 1.5;"/><line style="stroke: #000000; stroke-width: 1.5;" x1="271" x2="502" y1="153.2969" y2="153.2969"/><text fill="#000000" font-family="sans-serif" font-size="14" font-weight="bold" lengthAdjust="spacingAndGlyphs" textLength="218" x="275" y="145.9951">Phpolar\CsrfProtection\Http</text><!--MD5=[8e860edd58322d7276ac762460b19afb]
cluster Psr\\Http\\Server--><polygon fill="#FFFFFF" points="22,131,150,131,157,153.2969,243,153.2969,243,281,22,281,22,131" style="stroke: #000000; stroke-width: 1.5;"/><line style="stroke: #000000; stroke-width: 1.5;" x1="22" x2="157" y1="153.2969" y2="153.2969"/><text fill="#000000" font-family="sans-serif" font-size="14" font-weight="bold" lengthAdjust="spacingAndGlyphs" textLength="122" x="26" y="145.9951">Psr\Http\Server</text><!--MD5=[4214a011deaa3a50b2f5d003099ceada]
cluster Phpolar\\CsrfProtection\\Storage--><polygon fill="#FFFFFF" points="30.5,24,283.5,24,290.5,46.2969,498.5,46.2969,498.5,107,30.5,107,30.5,24" style="stroke: #000000; stroke-width: 1.5;"/><line style="stroke: #000000; stroke-width: 1.5;" x1="30.5" x2="290.5" y1="46.2969" y2="46.2969"/><text fill="#000000" font-family="sans-serif" font-size="14" font-weight="bold" lengthAdjust="spacingAndGlyphs" textLength="247" x="34.5" y="38.9951">Phpolar\CsrfProtection\Storage</text><!--MD5=[e43d7e1031fd6c0e780976ee6e7f49d7]
class Phpolar\\CsrfProtection\\CsrfToken--><rect fill="#FEFECE" height="32" id="Phpolar\\CsrfProtection\\CsrfToken" style="stroke: #A80036; stroke-width: 1.5;" width="94" x="351" y="407"/><ellipse cx="366" cy="423" fill="#ADD1B2" rx="11" ry="11" style="stroke: #A80036; stroke-width: 1.0;"/><path d="M368.9688,428.6406 Q368.3906,428.9375 367.75,429.0781 Q367.1094,429.2344 366.4063,429.2344 Q363.9063,429.2344 362.5781,427.5938 Q361.2656,425.9375 361.2656,422.8125 Q361.2656,419.6875 362.5781,418.0313 Q363.9063,416.375 366.4063,416.375 Q367.1094,416.375 367.75,416.5313 Q368.4063,416.6875 368.9688,416.9844 L368.9688,419.7031 Q368.3438,419.125 367.75,418.8594 Q367.1563,418.5781 366.5313,418.5781 Q365.1875,418.5781 364.5,419.6563 Q363.8125,420.7188 363.8125,422.8125 Q363.8125,424.9063 364.5,425.9844 Q365.1875,427.0469 366.5313,427.0469 Q367.1563,427.0469 367.75,426.7813 Q368.3438,426.5 368.9688,425.9219 L368.9688,428.6406 Z "/><text fill="#000000" font-family="sans-serif" font-size="12" lengthAdjust="spacingAndGlyphs" textLength="62" x="380" y="427.1543">CsrfToken</text><!--MD5=[e408896b58cb043f153e1cc54118f0bf]
class Phpolar\\CsrfProtection\\Http\\CsrfProtectionRequestHandler--><rect fill="#FEFECE" height="32" id="Phpolar\\CsrfProtection\\Http\\CsrfProtectionRequestHandler" style="stroke: #A80036; stroke-width: 1.5;" width="222" x="287" y="166"/><ellipse cx="302" cy="182" fill="#ADD1B2" rx="11" ry="11" style="stroke: #A80036; stroke-width: 1.0;"/><path d="M304.9688,187.6406 Q304.3906,187.9375 303.75,188.0781 Q303.1094,188.2344 302.4063,188.2344 Q299.9063,188.2344 298.5781,186.5938 Q297.2656,184.9375 297.2656,181.8125 Q297.2656,178.6875 298.5781,177.0313 Q299.9063,175.375 302.4063,175.375 Q303.1094,175.375 303.75,175.5313 Q304.4063,175.6875 304.9688,175.9844 L304.9688,178.7031 Q304.3438,178.125 303.75,177.8594 Q303.1563,177.5781 302.5313,177.5781 Q301.1875,177.5781 300.5,178.6563 Q299.8125,179.7188 299.8125,181.8125 Q299.8125,183.9063 300.5,184.9844 Q301.1875,186.0469 302.5313,186.0469 Q303.1563,186.0469 303.75,185.7813 Q304.3438,185.5 304.9688,184.9219 L304.9688,187.6406 Z "/><text fill="#000000" font-family="sans-serif" font-size="12" lengthAdjust="spacingAndGlyphs" textLength="190" x="316" y="186.1543">CsrfProtectionRequestHandler</text><!--MD5=[a793c685d1399d54fc1277f95f0636e2]
class Phpolar\\CsrfProtection\\Http\\CsrfRequestCheckMiddleware--><rect fill="#FEFECE" height="32" id="Phpolar\\CsrfProtection\\Http\\CsrfRequestCheckMiddleware" style="stroke: #A80036; stroke-width: 1.5;" width="216" x="290" y="233"/><ellipse cx="305" cy="249" fill="#ADD1B2" rx="11" ry="11" style="stroke: #A80036; stroke-width: 1.0;"/><path d="M307.9688,254.6406 Q307.3906,254.9375 306.75,255.0781 Q306.1094,255.2344 305.4063,255.2344 Q302.9063,255.2344 301.5781,253.5938 Q300.2656,251.9375 300.2656,248.8125 Q300.2656,245.6875 301.5781,244.0313 Q302.9063,242.375 305.4063,242.375 Q306.1094,242.375 306.75,242.5313 Q307.4063,242.6875 307.9688,242.9844 L307.9688,245.7031 Q307.3438,245.125 306.75,244.8594 Q306.1563,244.5781 305.5313,244.5781 Q304.1875,244.5781 303.5,245.6563 Q302.8125,246.7188 302.8125,248.8125 Q302.8125,250.9063 303.5,251.9844 Q304.1875,253.0469 305.5313,253.0469 Q306.1563,253.0469 306.75,252.7813 Q307.3438,252.5 307.9688,251.9219 L307.9688,254.6406 Z "/><text fill="#000000" font-family="sans-serif" font-size="12" lengthAdjust="spacingAndGlyphs" textLength="184" x="319" y="253.1543">CsrfRequestCheckMiddleware</text><!--MD5=[23ff9cedbc439124cac828ea0e475bb0]
class Phpolar\\CsrfProtection\\Http\\CsrfResponseFilterMiddleware--><rect fill="#FEFECE" height="32" id="Phpolar\\CsrfProtection\\Http\\CsrfResponseFilterMiddleware" style="stroke: #A80036; stroke-width: 1.5;" width="219" x="288.5" y="300"/><ellipse cx="303.5" cy="316" fill="#ADD1B2" rx="11" ry="11" style="stroke: #A80036; stroke-width: 1.0;"/><path d="M306.4688,321.6406 Q305.8906,321.9375 305.25,322.0781 Q304.6094,322.2344 303.9063,322.2344 Q301.4063,322.2344 300.0781,320.5938 Q298.7656,318.9375 298.7656,315.8125 Q298.7656,312.6875 300.0781,311.0313 Q301.4063,309.375 303.9063,309.375 Q304.6094,309.375 305.25,309.5313 Q305.9063,309.6875 306.4688,309.9844 L306.4688,312.7031 Q305.8438,312.125 305.25,311.8594 Q304.6563,311.5781 304.0313,311.5781 Q302.6875,311.5781 302,312.6563 Q301.3125,313.7188 301.3125,315.8125 Q301.3125,317.9063 302,318.9844 Q302.6875,320.0469 304.0313,320.0469 Q304.6563,320.0469 305.25,319.7813 Q305.8438,319.5 306.4688,318.9219 L306.4688,321.6406 Z "/><text fill="#000000" font-family="sans-serif" font-size="12" lengthAdjust="spacingAndGlyphs" textLength="187" x="317.5" y="320.1543">CsrfResponseFilterMiddleware</text><!--MD5=[eb647d64e0e505aae508247625db42c9]
class Psr\\Http\\Server\\RequestHandlerInterface--><rect fill="#FEFECE" height="32" id="Psr\\Http\\Server\\RequestHandlerInterface" style="stroke: #A80036; stroke-width: 1.5;" width="189" x="38" y="166"/><ellipse cx="53" cy="182" fill="#B4A7E5" rx="11" ry="11" style="stroke: #A80036; stroke-width: 1.0;"/><path d="M48.9219,177.7656 L48.9219,175.6094 L56.3125,175.6094 L56.3125,177.7656 L53.8438,177.7656 L53.8438,185.8438 L56.3125,185.8438 L56.3125,188 L48.9219,188 L48.9219,185.8438 L51.3906,185.8438 L51.3906,177.7656 L48.9219,177.7656 Z "/><text fill="#000000" font-family="sans-serif" font-size="12" font-style="italic" lengthAdjust="spacingAndGlyphs" textLength="157" x="67" y="186.1543">RequestHandlerInterface</text><!--MD5=[c9ec0e3c1f519dc0c5f59d9d724f4fc8]
class Psr\\Http\\Server\\MiddlewareInterface--><rect fill="#FEFECE" height="32" id="Psr\\Http\\Server\\MiddlewareInterface" style="stroke: #A80036; stroke-width: 1.5;" width="160" x="52.5" y="233"/><ellipse cx="67.5" cy="249" fill="#B4A7E5" rx="11" ry="11" style="stroke: #A80036; stroke-width: 1.0;"/><path d="M63.4219,244.7656 L63.4219,242.6094 L70.8125,242.6094 L70.8125,244.7656 L68.3438,244.7656 L68.3438,252.8438 L70.8125,252.8438 L70.8125,255 L63.4219,255 L63.4219,252.8438 L65.8906,252.8438 L65.8906,244.7656 L63.4219,244.7656 Z "/><text fill="#000000" font-family="sans-serif" font-size="12" font-style="italic" lengthAdjust="spacingAndGlyphs" textLength="128" x="81.5" y="253.1543">MiddlewareInterface</text><!--MD5=[76ef2183bb69fb596acc56381e5ad73a]
class Phpolar\\CsrfProtection\\Storage\\AbstractTokenStorage--><rect fill="#FEFECE" height="32" id="Phpolar\\CsrfProtection\\Storage\\AbstractTokenStorage" style="stroke: #A80036; stroke-width: 1.5;" width="172" x="46.5" y="59"/><ellipse cx="61.5" cy="75" fill="#A9DCDF" rx="11" ry="11" style="stroke: #A80036; stroke-width: 1.0;"/><path d="M61.6094,70.3438 L60.4531,75.4219 L62.7813,75.4219 L61.6094,70.3438 Z M60.125,68.1094 L63.1094,68.1094 L66.4688,80.5 L64.0156,80.5 L63.25,77.4375 L59.9688,77.4375 L59.2188,80.5 L56.7813,80.5 L60.125,68.1094 Z "/><text fill="#000000" font-family="sans-serif" font-size="12" font-style="italic" lengthAdjust="spacingAndGlyphs" textLength="140" x="75.5" y="79.1543">AbstractTokenStorage</text><!--MD5=[941bddd591b0bcc36ba0f86d7c1cce8e]
class Phpolar\\CsrfProtection\\Storage\\SessionTokenStorage--><rect fill="#FEFECE" height="32" id="Phpolar\\CsrfProtection\\Storage\\SessionTokenStorage" style="stroke: #A80036; stroke-width: 1.5;" width="169" x="313.5" y="59"/><ellipse cx="328.5" cy="75" fill="#ADD1B2" rx="11" ry="11" style="stroke: #A80036; stroke-width: 1.0;"/><path d="M331.4688,80.6406 Q330.8906,80.9375 330.25,81.0781 Q329.6094,81.2344 328.9063,81.2344 Q326.4063,81.2344 325.0781,79.5938 Q323.7656,77.9375 323.7656,74.8125 Q323.7656,71.6875 325.0781,70.0313 Q326.4063,68.375 328.9063,68.375 Q329.6094,68.375 330.25,68.5313 Q330.9063,68.6875 331.4688,68.9844 L331.4688,71.7031 Q330.8438,71.125 330.25,70.8594 Q329.6563,70.5781 329.0313,70.5781 Q327.6875,70.5781 327,71.6563 Q326.3125,72.7188 326.3125,74.8125 Q326.3125,76.9063 327,77.9844 Q327.6875,79.0469 329.0313,79.0469 Q329.6563,79.0469 330.25,78.7813 Q330.8438,78.5 331.4688,77.9219 L331.4688,80.6406 Z "/><text fill="#000000" font-family="sans-serif" font-size="12" lengthAdjust="spacingAndGlyphs" textLength="137" x="342.5" y="79.1543">SessionTokenStorage</text><!--MD5=[d590cb3cf1755846c9a17bad34216c08]
class Stringable--><rect fill="#FEFECE" height="32" id="Stringable" style="stroke: #A80036; stroke-width: 1.5;" width="96" x="84.5" y="407"/><ellipse cx="99.5" cy="423" fill="#B4A7E5" rx="11" ry="11" style="stroke: #A80036; stroke-width: 1.0;"/><path d="M95.4219,418.7656 L95.4219,416.6094 L102.8125,416.6094 L102.8125,418.7656 L100.3438,418.7656 L100.3438,426.8438 L102.8125,426.8438 L102.8125,429 L95.4219,429 L95.4219,426.8438 L97.8906,426.8438 L97.8906,418.7656 L95.4219,418.7656 Z "/><text fill="#000000" font-family="sans-serif" font-size="12" font-style="italic" lengthAdjust="spacingAndGlyphs" textLength="64" x="113.5" y="427.1543">Stringable</text><!--MD5=[29eed2bab4e6a2606ddfe6bbe6978f3f]
reverse link Stringable to Phpolar\\CsrfProtection\\CsrfToken--><path d="M200.58,423 C200.58,423 350.72,423 350.72,423 " fill="none" id="Stringable&lt;-Phpolar\\CsrfProtection\\CsrfToken" style="stroke: #516F42; stroke-width: 1.0; stroke-dasharray: 7.0,7.0;"/><polygon fill="none" points="200.58,430,180.58,423,200.58,416,200.58,430" style="stroke: #516F42; stroke-width: 1.0;"/><!--MD5=[502ca5a7ee96f44f5e257cb82cd36f2a]
reverse link Psr\\Http\\Server\\RequestHandlerInterface to Phpolar\\CsrfProtection\\Http\\CsrfProtectionRequestHandler--><path d="M247.23,182 C247.23,182 286.99,182 286.99,182 " fill="none" id="Psr\\Http\\Server\\RequestHandlerInterface&lt;-Phpolar\\CsrfProtection\\Http\\CsrfProtectionRequestHandler" style="stroke: #516F42; stroke-width: 1.0; stroke-dasharray: 7.0,7.0;"/><polygon fill="none" points="247.23,189,227.23,182,247.23,175,247.23,189" style="stroke: #516F42; stroke-width: 1.0;"/><!--MD5=[c1907b9c47702894484bf454c4dcb06a]
reverse link Psr\\Http\\Server\\MiddlewareInterface to Phpolar\\CsrfProtection\\Http\\CsrfRequestCheckMiddleware--><path d="M232.52,249 C232.52,249 289.69,249 289.69,249 " fill="none" id="Psr\\Http\\Server\\MiddlewareInterface&lt;-Phpolar\\CsrfProtection\\Http\\CsrfRequestCheckMiddleware" style="stroke: #516F42; stroke-width: 1.0; stroke-dasharray: 7.0,7.0;"/><polygon fill="none" points="232.52,256,212.52,249,232.52,242,232.52,256" style="stroke: #516F42; stroke-width: 1.0;"/><!--MD5=[c142cb715253b75370a1f377ab67aeda]
reverse link Psr\\Http\\Server\\MiddlewareInterface to Phpolar\\CsrfProtection\\Http\\CsrfResponseFilterMiddleware--><path d="M197,285.22 C197,285.22 197,316 197,316 C197,316 241.35,316 288.38,316 " fill="none" id="Psr\\Http\\Server\\MiddlewareInterface&lt;-Phpolar\\CsrfProtection\\Http\\CsrfResponseFilterMiddleware" style="stroke: #516F42; stroke-width: 1.0; stroke-dasharray: 7.0,7.0;"/><polygon fill="none" points="190,285.22,197,265.22,204,285.22,190,285.22" style="stroke: #516F42; stroke-width: 1.0;"/><!--MD5=[ebe49e231e210efe761595e85ab441b7]
reverse link Phpolar\\CsrfProtection\\Storage\\AbstractTokenStorage to Phpolar\\CsrfProtection\\Storage\\SessionTokenStorage--><path d="M238.7,75 C238.7,75 313.14,75 313.14,75 " fill="none" id="Phpolar\\CsrfProtection\\Storage\\AbstractTokenStorage&lt;-Phpolar\\CsrfProtection\\Storage\\SessionTokenStorage" style="stroke: #516F42; stroke-width: 1.0;"/><polygon fill="none" points="238.7,82,218.7,75,238.7,68,238.7,82" style="stroke: #516F42; stroke-width: 1.0;"/><!--MD5=[d97ff77e5c4a3ceff2339c46de905525]
@startuml
   skinparam ArrowColor #516f42
   skinparam activityBorderColor #516f42
   skinparam activityBackgroundColor #ffffff
   skinparam activityDiamondBorderColor #516f42
   skinparam activityDiamondBackgroundColor #ffffff
   skinparam shadowing false

skinparam shadowing false
skinparam linetype ortho
hide empty members
left to right direction
set namespaceSeparator \\


class \\Phpolar\\CsrfProtection\\CsrfToken implements \\Stringable {
}

class \\Phpolar\\CsrfProtection\\Http\\CsrfProtectionRequestHandler implements \\Psr\\Http\\Server\\RequestHandlerInterface {
}

class \\Phpolar\\CsrfProtection\\Http\\CsrfRequestCheckMiddleware implements \\Psr\\Http\\Server\\MiddlewareInterface {
}

class \\Phpolar\\CsrfProtection\\Http\\CsrfResponseFilterMiddleware implements \\Psr\\Http\\Server\\MiddlewareInterface {
}

abstract class \\Phpolar\\CsrfProtection\\Storage\\AbstractTokenStorage {
}

class \\Phpolar\\CsrfProtection\\Storage\\SessionTokenStorage extends \\Phpolar\\CsrfProtection\\Storage\\AbstractTokenStorage {
}

@enduml

PlantUML version 1.2020.02(Sun Mar 01 04:22:07 CST 2020)
(GPL source distribution)
Java Runtime: OpenJDK Runtime Environment
JVM: OpenJDK 64-Bit Server VM
Java Version: 11.0.19+7-post-Ubuntu-0ubuntu122.04.1
Operating System: Linux
Default Encoding: UTF-8
Language: en
Country: US
--></g></svg>