<?xml version="1.0" encoding="UTF-8" standalone="no"?><svg xmlns="http://www.w3.org/2000/svg" xmlns:xlink="http://www.w3.org/1999/xlink" contentScriptType="application/ecmascript" contentStyleType="text/css" height="494px" preserveAspectRatio="none" style="width:858px;height:494px;" version="1.1" viewBox="0 0 858 494" width="858px" zoomAndPan="magnify"><defs/><g><!--MD5=[540ebe81cd522f86a29871f64de41617]
cluster Phpolar\\CsrfProtection--><polygon fill="#FFFFFF" points="34.5,352,220.5,352,227.5,374.2969,230.5,374.2969,230.5,435,34.5,435,34.5,352" style="stroke: #000000; stroke-width: 1.5;"/><line style="stroke: #000000; stroke-width: 1.5;" x1="34.5" x2="227.5" y1="374.2969" y2="374.2969"/><text fill="#000000" font-family="sans-serif" font-size="14" font-weight="bold" lengthAdjust="spacingAndGlyphs" textLength="180" x="38.5" y="366.9951">Phpolar\CsrfProtection</text><!--MD5=[b0599d64809b33a47852a51499c9b6df]
cluster Phpolar\\CsrfProtection\\Http--><polygon fill="#FFFFFF" points="271,131,495,131,502,153.2969,836,153.2969,836,482,271,482,271,131" style="stroke: #000000; stroke-width: 1.5;"/><line style="stroke: #000000; stroke-width: 1.5;" x1="271" x2="502" y1="153.2969" y2="153.2969"/><text fill="#000000" font-family="sans-serif" font-size="14" font-weight="bold" lengthAdjust="spacingAndGlyphs" textLength="218" x="275" y="145.9951">Phpolar\CsrfProtection\Http</text><!--MD5=[8e860edd58322d7276ac762460b19afb]
cluster Psr\\Http\\Server--><polygon fill="#FFFFFF" points="22,131,150,131,157,153.2969,243,153.2969,243,281,22,281,22,131" style="stroke: #000000; stroke-width: 1.5;"/><line style="stroke: #000000; stroke-width: 1.5;" x1="22" x2="157" y1="153.2969" y2="153.2969"/><text fill="#000000" font-family="sans-serif" font-size="14" font-weight="bold" lengthAdjust="spacingAndGlyphs" textLength="122" x="26" y="145.9951">Psr\Http\Server</text><!--MD5=[4214a011deaa3a50b2f5d003099ceada]
cluster Phpolar\\CsrfProtection\\Storage--><polygon fill="#FFFFFF" points="30.5,24,283.5,24,290.5,46.2969,511.5,46.2969,511.5,107,30.5,107,30.5,24" style="stroke: #000000; stroke-width: 1.5;"/><line style="stroke: #000000; stroke-width: 1.5;" x1="30.5" x2="290.5" y1="46.2969" y2="46.2969"/><text fill="#000000" font-family="sans-serif" font-size="14" font-weight="bold" lengthAdjust="spacingAndGlyphs" textLength="247" x="34.5" y="38.9951">Phpolar\CsrfProtection\Storage</text><!--MD5=[e43d7e1031fd6c0e780976ee6e7f49d7]
class Phpolar\\CsrfProtection\\CsrfToken--><rect fill="#FEFECE" height="32" id="Phpolar\\CsrfProtection\\CsrfToken" style="stroke: #A80036; stroke-width: 1.5;" width="94" x="85.5" y="387"/><ellipse cx="100.5" cy="403" fill="#ADD1B2" rx="11" ry="11" style="stroke: #A80036; stroke-width: 1.0;"/><path d="M103.4688,408.6406 Q102.8906,408.9375 102.25,409.0781 Q101.6094,409.2344 100.9063,409.2344 Q98.4063,409.2344 97.0781,407.5938 Q95.7656,405.9375 95.7656,402.8125 Q95.7656,399.6875 97.0781,398.0313 Q98.4063,396.375 100.9063,396.375 Q101.6094,396.375 102.25,396.5313 Q102.9063,396.6875 103.4688,396.9844 L103.4688,399.7031 Q102.8438,399.125 102.25,398.8594 Q101.6563,398.5781 101.0313,398.5781 Q99.6875,398.5781 99,399.6563 Q98.3125,400.7188 98.3125,402.8125 Q98.3125,404.9063 99,405.9844 Q99.6875,407.0469 101.0313,407.0469 Q101.6563,407.0469 102.25,406.7813 Q102.8438,406.5 103.4688,405.9219 L103.4688,408.6406 Z "/><text fill="#000000" font-family="sans-serif" font-size="12" lengthAdjust="spacingAndGlyphs" textLength="62" x="114.5" y="407.1543">CsrfToken</text><!--MD5=[2df211a110cf1108ed553ba6a44c5eb1]
class Phpolar\\CsrfProtection\\Http\\AbstractCsrfProtectionMiddleware--><rect fill="#FEFECE" height="32" id="Phpolar\\CsrfProtection\\Http\\AbstractCsrfProtectionMiddleware" style="stroke: #A80036; stroke-width: 1.5;" width="242" x="290" y="166"/><ellipse cx="305" cy="182" fill="#A9DCDF" rx="11" ry="11" style="stroke: #A80036; stroke-width: 1.0;"/><path d="M305.1094,177.3438 L303.9531,182.4219 L306.2813,182.4219 L305.1094,177.3438 Z M303.625,175.1094 L306.6094,175.1094 L309.9688,187.5 L307.5156,187.5 L306.75,184.4375 L303.4688,184.4375 L302.7188,187.5 L300.2813,187.5 L303.625,175.1094 Z "/><text fill="#000000" font-family="sans-serif" font-size="12" font-style="italic" lengthAdjust="spacingAndGlyphs" textLength="210" x="319" y="186.1543">AbstractCsrfProtectionMiddleware</text><!--MD5=[ec18a6b4c173a54f320c0931a8000c10]
class Phpolar\\CsrfProtection\\Http\\CsrfCheckRequestHandler--><rect fill="#FEFECE" height="32" id="Phpolar\\CsrfProtection\\Http\\CsrfCheckRequestHandler" style="stroke: #A80036; stroke-width: 1.5;" width="195" x="313.5" y="233"/><ellipse cx="328.5" cy="249" fill="#ADD1B2" rx="11" ry="11" style="stroke: #A80036; stroke-width: 1.0;"/><path d="M331.4688,254.6406 Q330.8906,254.9375 330.25,255.0781 Q329.6094,255.2344 328.9063,255.2344 Q326.4063,255.2344 325.0781,253.5938 Q323.7656,251.9375 323.7656,248.8125 Q323.7656,245.6875 325.0781,244.0313 Q326.4063,242.375 328.9063,242.375 Q329.6094,242.375 330.25,242.5313 Q330.9063,242.6875 331.4688,242.9844 L331.4688,245.7031 Q330.8438,245.125 330.25,244.8594 Q329.6563,244.5781 329.0313,244.5781 Q327.6875,244.5781 327,245.6563 Q326.3125,246.7188 326.3125,248.8125 Q326.3125,250.9063 327,251.9844 Q327.6875,253.0469 329.0313,253.0469 Q329.6563,253.0469 330.25,252.7813 Q330.8438,252.5 331.4688,251.9219 L331.4688,254.6406 Z "/><text fill="#000000" font-family="sans-serif" font-size="12" lengthAdjust="spacingAndGlyphs" textLength="163" x="342.5" y="253.1543">CsrfCheckRequestHandler</text><!--MD5=[a05af07ac626131009d571f0427b354c]
class Phpolar\\CsrfProtection\\Http\\CsrfPostRoutingMiddleware--><rect fill="#FEFECE" height="32" id="Phpolar\\CsrfProtection\\Http\\CsrfPostRoutingMiddleware" style="stroke: #A80036; stroke-width: 1.5;" width="202" x="606.5" y="233"/><ellipse cx="621.5" cy="249" fill="#ADD1B2" rx="11" ry="11" style="stroke: #A80036; stroke-width: 1.0;"/><path d="M624.4688,254.6406 Q623.8906,254.9375 623.25,255.0781 Q622.6094,255.2344 621.9063,255.2344 Q619.4063,255.2344 618.0781,253.5938 Q616.7656,251.9375 616.7656,248.8125 Q616.7656,245.6875 618.0781,244.0313 Q619.4063,242.375 621.9063,242.375 Q622.6094,242.375 623.25,242.5313 Q623.9063,242.6875 624.4688,242.9844 L624.4688,245.7031 Q623.8438,245.125 623.25,244.8594 Q622.6563,244.5781 622.0313,244.5781 Q620.6875,244.5781 620,245.6563 Q619.3125,246.7188 619.3125,248.8125 Q619.3125,250.9063 620,251.9844 Q620.6875,253.0469 622.0313,253.0469 Q622.6563,253.0469 623.25,252.7813 Q623.8438,252.5 624.4688,251.9219 L624.4688,254.6406 Z "/><text fill="#000000" font-family="sans-serif" font-size="12" lengthAdjust="spacingAndGlyphs" textLength="170" x="635.5" y="253.1543">CsrfPostRoutingMiddleware</text><!--MD5=[92ac454479ada3d2b3246f1b452a2ec5]
class Phpolar\\CsrfProtection\\Http\\CsrfPostRoutingMiddlewareFactory--><rect fill="#FEFECE" height="32" id="Phpolar\\CsrfProtection\\Http\\CsrfPostRoutingMiddlewareFactory" style="stroke: #A80036; stroke-width: 1.5;" width="248" x="287" y="300"/><ellipse cx="302" cy="316" fill="#ADD1B2" rx="11" ry="11" style="stroke: #A80036; stroke-width: 1.0;"/><path d="M304.9688,321.6406 Q304.3906,321.9375 303.75,322.0781 Q303.1094,322.2344 302.4063,322.2344 Q299.9063,322.2344 298.5781,320.5938 Q297.2656,318.9375 297.2656,315.8125 Q297.2656,312.6875 298.5781,311.0313 Q299.9063,309.375 302.4063,309.375 Q303.1094,309.375 303.75,309.5313 Q304.4063,309.6875 304.9688,309.9844 L304.9688,312.7031 Q304.3438,312.125 303.75,311.8594 Q303.1563,311.5781 302.5313,311.5781 Q301.1875,311.5781 300.5,312.6563 Q299.8125,313.7188 299.8125,315.8125 Q299.8125,317.9063 300.5,318.9844 Q301.1875,320.0469 302.5313,320.0469 Q303.1563,320.0469 303.75,319.7813 Q304.3438,319.5 304.9688,318.9219 L304.9688,321.6406 Z "/><text fill="#000000" font-family="sans-serif" font-size="12" lengthAdjust="spacingAndGlyphs" textLength="216" x="316" y="320.1543">CsrfPostRoutingMiddlewareFactory</text><!--MD5=[a742e0e93970215e940c2f9a60099ab9]
class Phpolar\\CsrfProtection\\Http\\CsrfPreRoutingMiddleware--><rect fill="#FEFECE" height="32" id="Phpolar\\CsrfProtection\\Http\\CsrfPreRoutingMiddleware" style="stroke: #A80036; stroke-width: 1.5;" width="195" x="610" y="166"/><ellipse cx="625" cy="182" fill="#ADD1B2" rx="11" ry="11" style="stroke: #A80036; stroke-width: 1.0;"/><path d="M627.9688,187.6406 Q627.3906,187.9375 626.75,188.0781 Q626.1094,188.2344 625.4063,188.2344 Q622.9063,188.2344 621.5781,186.5938 Q620.2656,184.9375 620.2656,181.8125 Q620.2656,178.6875 621.5781,177.0313 Q622.9063,175.375 625.4063,175.375 Q626.1094,175.375 626.75,175.5313 Q627.4063,175.6875 627.9688,175.9844 L627.9688,178.7031 Q627.3438,178.125 626.75,177.8594 Q626.1563,177.5781 625.5313,177.5781 Q624.1875,177.5781 623.5,178.6563 Q622.8125,179.7188 622.8125,181.8125 Q622.8125,183.9063 623.5,184.9844 Q624.1875,186.0469 625.5313,186.0469 Q626.1563,186.0469 626.75,185.7813 Q627.3438,185.5 627.9688,184.9219 L627.9688,187.6406 Z "/><text fill="#000000" font-family="sans-serif" font-size="12" lengthAdjust="spacingAndGlyphs" textLength="163" x="639" y="186.1543">CsrfPreRoutingMiddleware</text><!--MD5=[f150a134afe4e2d386ee9b8b2d48c314]
class Phpolar\\CsrfProtection\\Http\\ResponseFilterContext--><rect fill="#FEFECE" height="32" id="Phpolar\\CsrfProtection\\Http\\ResponseFilterContext" style="stroke: #A80036; stroke-width: 1.5;" width="173" x="324.5" y="367"/><ellipse cx="339.5" cy="383" fill="#ADD1B2" rx="11" ry="11" style="stroke: #A80036; stroke-width: 1.0;"/><path d="M342.4688,388.6406 Q341.8906,388.9375 341.25,389.0781 Q340.6094,389.2344 339.9063,389.2344 Q337.4063,389.2344 336.0781,387.5938 Q334.7656,385.9375 334.7656,382.8125 Q334.7656,379.6875 336.0781,378.0313 Q337.4063,376.375 339.9063,376.375 Q340.6094,376.375 341.25,376.5313 Q341.9063,376.6875 342.4688,376.9844 L342.4688,379.7031 Q341.8438,379.125 341.25,378.8594 Q340.6563,378.5781 340.0313,378.5781 Q338.6875,378.5781 338,379.6563 Q337.3125,380.7188 337.3125,382.8125 Q337.3125,384.9063 338,385.9844 Q338.6875,387.0469 340.0313,387.0469 Q340.6563,387.0469 341.25,386.7813 Q341.8438,386.5 342.4688,385.9219 L342.4688,388.6406 Z "/><text fill="#000000" font-family="sans-serif" font-size="12" lengthAdjust="spacingAndGlyphs" textLength="141" x="353.5" y="387.1543">ResponseFilterContext</text><!--MD5=[616093699369591e5900d727455f1e1e]
class Phpolar\\CsrfProtection\\Http\\ResponseFilterPatternStrategy--><rect fill="#FEFECE" height="32" id="Phpolar\\CsrfProtection\\Http\\ResponseFilterPatternStrategy" style="stroke: #A80036; stroke-width: 1.5;" width="225" x="595" y="434"/><ellipse cx="610" cy="450" fill="#ADD1B2" rx="11" ry="11" style="stroke: #A80036; stroke-width: 1.0;"/><path d="M612.9688,455.6406 Q612.3906,455.9375 611.75,456.0781 Q611.1094,456.2344 610.4063,456.2344 Q607.9063,456.2344 606.5781,454.5938 Q605.2656,452.9375 605.2656,449.8125 Q605.2656,446.6875 606.5781,445.0313 Q607.9063,443.375 610.4063,443.375 Q611.1094,443.375 611.75,443.5313 Q612.4063,443.6875 612.9688,443.9844 L612.9688,446.7031 Q612.3438,446.125 611.75,445.8594 Q611.1563,445.5781 610.5313,445.5781 Q609.1875,445.5781 608.5,446.6563 Q607.8125,447.7188 607.8125,449.8125 Q607.8125,451.9063 608.5,452.9844 Q609.1875,454.0469 610.5313,454.0469 Q611.1563,454.0469 611.75,453.7813 Q612.3438,453.5 612.9688,452.9219 L612.9688,455.6406 Z "/><text fill="#000000" font-family="sans-serif" font-size="12" lengthAdjust="spacingAndGlyphs" textLength="193" x="624" y="454.1543">ResponseFilterPatternStrategy</text><!--MD5=[5fe8943d5d67ae48496794a71a644222]
class Phpolar\\CsrfProtection\\Http\\ResponseFilterStrategyInterface--><rect fill="#FEFECE" height="32" id="Phpolar\\CsrfProtection\\Http\\ResponseFilterStrategyInterface" style="stroke: #A80036; stroke-width: 1.5;" width="234" x="294" y="434"/><ellipse cx="309" cy="450" fill="#B4A7E5" rx="11" ry="11" style="stroke: #A80036; stroke-width: 1.0;"/><path d="M304.9219,445.7656 L304.9219,443.6094 L312.3125,443.6094 L312.3125,445.7656 L309.8438,445.7656 L309.8438,453.8438 L312.3125,453.8438 L312.3125,456 L304.9219,456 L304.9219,453.8438 L307.3906,453.8438 L307.3906,445.7656 L304.9219,445.7656 Z "/><text fill="#000000" font-family="sans-serif" font-size="12" font-style="italic" lengthAdjust="spacingAndGlyphs" textLength="202" x="323" y="454.1543">ResponseFilterStrategyInterface</text><!--MD5=[63ae031b154172381f1449a0b17771a7]
class Phpolar\\CsrfProtection\\Http\\ResponseFilterScanStrategy--><rect fill="#FEFECE" height="32" id="Phpolar\\CsrfProtection\\Http\\ResponseFilterScanStrategy" style="stroke: #A80036; stroke-width: 1.5;" width="209" x="603" y="367"/><ellipse cx="618" cy="383" fill="#ADD1B2" rx="11" ry="11" style="stroke: #A80036; stroke-width: 1.0;"/><path d="M620.9688,388.6406 Q620.3906,388.9375 619.75,389.0781 Q619.1094,389.2344 618.4063,389.2344 Q615.9063,389.2344 614.5781,387.5938 Q613.2656,385.9375 613.2656,382.8125 Q613.2656,379.6875 614.5781,378.0313 Q615.9063,376.375 618.4063,376.375 Q619.1094,376.375 619.75,376.5313 Q620.4063,376.6875 620.9688,376.9844 L620.9688,379.7031 Q620.3438,379.125 619.75,378.8594 Q619.1563,378.5781 618.5313,378.5781 Q617.1875,378.5781 616.5,379.6563 Q615.8125,380.7188 615.8125,382.8125 Q615.8125,384.9063 616.5,385.9844 Q617.1875,387.0469 618.5313,387.0469 Q619.1563,387.0469 619.75,386.7813 Q620.3438,386.5 620.9688,385.9219 L620.9688,388.6406 Z "/><text fill="#000000" font-family="sans-serif" font-size="12" lengthAdjust="spacingAndGlyphs" textLength="177" x="632" y="387.1543">ResponseFilterScanStrategy</text><!--MD5=[c9ec0e3c1f519dc0c5f59d9d724f4fc8]
class Psr\\Http\\Server\\MiddlewareInterface--><rect fill="#FEFECE" height="32" id="Psr\\Http\\Server\\MiddlewareInterface" style="stroke: #A80036; stroke-width: 1.5;" width="160" x="52.5" y="166"/><ellipse cx="67.5" cy="182" fill="#B4A7E5" rx="11" ry="11" style="stroke: #A80036; stroke-width: 1.0;"/><path d="M63.4219,177.7656 L63.4219,175.6094 L70.8125,175.6094 L70.8125,177.7656 L68.3438,177.7656 L68.3438,185.8438 L70.8125,185.8438 L70.8125,188 L63.4219,188 L63.4219,185.8438 L65.8906,185.8438 L65.8906,177.7656 L63.4219,177.7656 Z "/><text fill="#000000" font-family="sans-serif" font-size="12" font-style="italic" lengthAdjust="spacingAndGlyphs" textLength="128" x="81.5" y="186.1543">MiddlewareInterface</text><!--MD5=[eb647d64e0e505aae508247625db42c9]
class Psr\\Http\\Server\\RequestHandlerInterface--><rect fill="#FEFECE" height="32" id="Psr\\Http\\Server\\RequestHandlerInterface" style="stroke: #A80036; stroke-width: 1.5;" width="189" x="38" y="233"/><ellipse cx="53" cy="249" fill="#B4A7E5" rx="11" ry="11" style="stroke: #A80036; stroke-width: 1.0;"/><path d="M48.9219,244.7656 L48.9219,242.6094 L56.3125,242.6094 L56.3125,244.7656 L53.8438,244.7656 L53.8438,252.8438 L56.3125,252.8438 L56.3125,255 L48.9219,255 L48.9219,252.8438 L51.3906,252.8438 L51.3906,244.7656 L48.9219,244.7656 Z "/><text fill="#000000" font-family="sans-serif" font-size="12" font-style="italic" lengthAdjust="spacingAndGlyphs" textLength="157" x="67" y="253.1543">RequestHandlerInterface</text><!--MD5=[76ef2183bb69fb596acc56381e5ad73a]
class Phpolar\\CsrfProtection\\Storage\\AbstractTokenStorage--><rect fill="#FEFECE" height="32" id="Phpolar\\CsrfProtection\\Storage\\AbstractTokenStorage" style="stroke: #A80036; stroke-width: 1.5;" width="172" x="46.5" y="59"/><ellipse cx="61.5" cy="75" fill="#A9DCDF" rx="11" ry="11" style="stroke: #A80036; stroke-width: 1.0;"/><path d="M61.6094,70.3438 L60.4531,75.4219 L62.7813,75.4219 L61.6094,70.3438 Z M60.125,68.1094 L63.1094,68.1094 L66.4688,80.5 L64.0156,80.5 L63.25,77.4375 L59.9688,77.4375 L59.2188,80.5 L56.7813,80.5 L60.125,68.1094 Z "/><text fill="#000000" font-family="sans-serif" font-size="12" font-style="italic" lengthAdjust="spacingAndGlyphs" textLength="140" x="75.5" y="79.1543">AbstractTokenStorage</text><!--MD5=[941bddd591b0bcc36ba0f86d7c1cce8e]
class Phpolar\\CsrfProtection\\Storage\\SessionTokenStorage--><rect fill="#FEFECE" height="32" id="Phpolar\\CsrfProtection\\Storage\\SessionTokenStorage" style="stroke: #A80036; stroke-width: 1.5;" width="169" x="326.5" y="59"/><ellipse cx="341.5" cy="75" fill="#ADD1B2" rx="11" ry="11" style="stroke: #A80036; stroke-width: 1.0;"/><path d="M344.4688,80.6406 Q343.8906,80.9375 343.25,81.0781 Q342.6094,81.2344 341.9063,81.2344 Q339.4063,81.2344 338.0781,79.5938 Q336.7656,77.9375 336.7656,74.8125 Q336.7656,71.6875 338.0781,70.0313 Q339.4063,68.375 341.9063,68.375 Q342.6094,68.375 343.25,68.5313 Q343.9063,68.6875 344.4688,68.9844 L344.4688,71.7031 Q343.8438,71.125 343.25,70.8594 Q342.6563,70.5781 342.0313,70.5781 Q340.6875,70.5781 340,71.6563 Q339.3125,72.7188 339.3125,74.8125 Q339.3125,76.9063 340,77.9844 Q340.6875,79.0469 342.0313,79.0469 Q342.6563,79.0469 343.25,78.7813 Q343.8438,78.5 344.4688,77.9219 L344.4688,80.6406 Z "/><text fill="#000000" font-family="sans-serif" font-size="12" lengthAdjust="spacingAndGlyphs" textLength="137" x="355.5" y="79.1543">SessionTokenStorage</text><!--MD5=[c31c898e7b8870088af5ac02311c6304]
reverse link Psr\\Http\\Server\\MiddlewareInterface to Phpolar\\CsrfProtection\\Http\\AbstractCsrfProtectionMiddleware--><path d="M232.68,182 C232.68,182 289.92,182 289.92,182 " fill="none" id="Psr\\Http\\Server\\MiddlewareInterface&lt;-Phpolar\\CsrfProtection\\Http\\AbstractCsrfProtectionMiddleware" style="stroke: #516F42; stroke-width: 1.0; stroke-dasharray: 7.0,7.0;"/><polygon fill="none" points="232.68,189,212.68,182,232.68,175,232.68,189" style="stroke: #516F42; stroke-width: 1.0;"/><!--MD5=[109e9fbc0ea669852ad634aed854d8d6]
reverse link Psr\\Http\\Server\\RequestHandlerInterface to Phpolar\\CsrfProtection\\Http\\CsrfCheckRequestHandler--><path d="M247.18,249 C247.18,249 313.26,249 313.26,249 " fill="none" id="Psr\\Http\\Server\\RequestHandlerInterface&lt;-Phpolar\\CsrfProtection\\Http\\CsrfCheckRequestHandler" style="stroke: #516F42; stroke-width: 1.0; stroke-dasharray: 7.0,7.0;"/><polygon fill="none" points="247.18,256,227.18,249,247.18,242,247.18,256" style="stroke: #516F42; stroke-width: 1.0;"/><!--MD5=[7667c65275311253d2ceb8c576f19e71]
reverse link Phpolar\\CsrfProtection\\Http\\AbstractCsrfProtectionMiddleware to Phpolar\\CsrfProtection\\Http\\CsrfPostRoutingMiddleware--><path d="M521,218.22 C521,218.22 521,249 521,249 C521,249 562.49,249 606.34,249 " fill="none" id="Phpolar\\CsrfProtection\\Http\\AbstractCsrfProtectionMiddleware&lt;-Phpolar\\CsrfProtection\\Http\\CsrfPostRoutingMiddleware" style="stroke: #516F42; stroke-width: 1.0;"/><polygon fill="none" points="514,218.22,521,198.22,528,218.22,514,218.22" style="stroke: #516F42; stroke-width: 1.0;"/><!--MD5=[c772e8f2250e5998dbf002bc6009b37a]
reverse link Phpolar\\CsrfProtection\\Http\\AbstractCsrfProtectionMiddleware to Phpolar\\CsrfProtection\\Http\\CsrfPreRoutingMiddleware--><path d="M552.03,182 C552.03,182 609.98,182 609.98,182 " fill="none" id="Phpolar\\CsrfProtection\\Http\\AbstractCsrfProtectionMiddleware&lt;-Phpolar\\CsrfProtection\\Http\\CsrfPreRoutingMiddleware" style="stroke: #516F42; stroke-width: 1.0;"/><polygon fill="none" points="552.03,189,532.03,182,552.03,175,552.03,189" style="stroke: #516F42; stroke-width: 1.0;"/><!--MD5=[e1654aca38ecd956c37074565c76948f]
reverse link Phpolar\\CsrfProtection\\Http\\ResponseFilterStrategyInterface to Phpolar\\CsrfProtection\\Http\\ResponseFilterPatternStrategy--><path d="M548.18,450 C548.18,450 594.55,450 594.55,450 " fill="none" id="Phpolar\\CsrfProtection\\Http\\ResponseFilterStrategyInterface&lt;-Phpolar\\CsrfProtection\\Http\\ResponseFilterPatternStrategy" style="stroke: #516F42; stroke-width: 1.0; stroke-dasharray: 7.0,7.0;"/><polygon fill="none" points="548.18,457,528.18,450,548.18,443,548.18,457" style="stroke: #516F42; stroke-width: 1.0;"/><!--MD5=[bee1cb59dafe78b06238b48e3dcacf0c]
reverse link Phpolar\\CsrfProtection\\Http\\ResponseFilterStrategyInterface to Phpolar\\CsrfProtection\\Http\\ResponseFilterScanStrategy--><path d="M513,413.78 C513,413.78 513,383 513,383 C513,383 556.81,383 602.85,383 " fill="none" id="Phpolar\\CsrfProtection\\Http\\ResponseFilterStrategyInterface&lt;-Phpolar\\CsrfProtection\\Http\\ResponseFilterScanStrategy" style="stroke: #516F42; stroke-width: 1.0; stroke-dasharray: 7.0,7.0;"/><polygon fill="none" points="520,413.78,513,433.78,506,413.78,520,413.78" style="stroke: #516F42; stroke-width: 1.0;"/><!--MD5=[ebe49e231e210efe761595e85ab441b7]
reverse link Phpolar\\CsrfProtection\\Storage\\AbstractTokenStorage to Phpolar\\CsrfProtection\\Storage\\SessionTokenStorage--><path d="M238.71,75 C238.71,75 326.15,75 326.15,75 " fill="none" id="Phpolar\\CsrfProtection\\Storage\\AbstractTokenStorage&lt;-Phpolar\\CsrfProtection\\Storage\\SessionTokenStorage" style="stroke: #516F42; stroke-width: 1.0;"/><polygon fill="none" points="238.71,82,218.71,75,238.71,68,238.71,82" style="stroke: #516F42; stroke-width: 1.0;"/><!--MD5=[0063211ca4d9071dc09ce862a6a36353]
@startuml
   skinparam ArrowColor #516f42
   skinparam activityBorderColor #516f42
   skinparam activityBackgroundColor #ffffff
   skinparam activityDiamondBorderColor #516f42
   skinparam activityDiamondBackgroundColor #ffffff
   skinparam shadowing false

skinparam shadowing false
skinparam linetype ortho
hide empty members
left to right direction
set namespaceSeparator \\


class \\Phpolar\\CsrfProtection\\CsrfToken {
}

abstract class \\Phpolar\\CsrfProtection\\Http\\AbstractCsrfProtectionMiddleware implements \\Psr\\Http\\Server\\MiddlewareInterface {
}

class \\Phpolar\\CsrfProtection\\Http\\CsrfCheckRequestHandler implements \\Psr\\Http\\Server\\RequestHandlerInterface {
}

class \\Phpolar\\CsrfProtection\\Http\\CsrfPostRoutingMiddleware extends \\Phpolar\\CsrfProtection\\Http\\AbstractCsrfProtectionMiddleware {
}

class \\Phpolar\\CsrfProtection\\Http\\CsrfPostRoutingMiddlewareFactory {
}

class \\Phpolar\\CsrfProtection\\Http\\CsrfPreRoutingMiddleware extends \\Phpolar\\CsrfProtection\\Http\\AbstractCsrfProtectionMiddleware {
}

class \\Phpolar\\CsrfProtection\\Http\\ResponseFilterContext {
}

class \\Phpolar\\CsrfProtection\\Http\\ResponseFilterPatternStrategy implements \\Phpolar\\CsrfProtection\\Http\\ResponseFilterStrategyInterface {
}

class \\Phpolar\\CsrfProtection\\Http\\ResponseFilterScanStrategy implements \\Phpolar\\CsrfProtection\\Http\\ResponseFilterStrategyInterface {
}

interface \\Phpolar\\CsrfProtection\\Http\\ResponseFilterStrategyInterface {
}

abstract class \\Phpolar\\CsrfProtection\\Storage\\AbstractTokenStorage {
}

class \\Phpolar\\CsrfProtection\\Storage\\SessionTokenStorage extends \\Phpolar\\CsrfProtection\\Storage\\AbstractTokenStorage {
}

@enduml

PlantUML version 1.2020.02(Sun Mar 01 04:22:07 CST 2020)
(GPL source distribution)
Java Runtime: OpenJDK Runtime Environment
JVM: OpenJDK 64-Bit Server VM
Java Version: 11.0.17+8-post-Ubuntu-1ubuntu222.04
Operating System: Linux
Default Encoding: UTF-8
Language: en
Country: US
--></g></svg>
