<?xml version="1.0" encoding="UTF-8" standalone="no"?><svg xmlns="http://www.w3.org/2000/svg" xmlns:xlink="http://www.w3.org/1999/xlink" contentScriptType="application/ecmascript" contentStyleType="text/css" height="494px" preserveAspectRatio="none" style="width:875px;height:494px;" version="1.1" viewBox="0 0 875 494" width="875px" zoomAndPan="magnify"><defs/><g><!--MD5=[540ebe81cd522f86a29871f64de41617]
cluster Phpolar\\CsrfProtection--><polygon fill="#FFFFFF" points="34.5,352,220.5,352,227.5,374.2969,230.5,374.2969,230.5,435,34.5,435,34.5,352" style="stroke: #000000; stroke-width: 1.5;"/><line style="stroke: #000000; stroke-width: 1.5;" x1="34.5" x2="227.5" y1="374.2969" y2="374.2969"/><text fill="#000000" font-family="sans-serif" font-size="14" font-weight="bold" lengthAdjust="spacingAndGlyphs" textLength="180" x="38.5" y="366.9951">Phpolar\CsrfProtection</text><!--MD5=[b0599d64809b33a47852a51499c9b6df]
cluster Phpolar\\CsrfProtection\\Http--><polygon fill="#FFFFFF" points="271,131,495,131,502,153.2969,853,153.2969,853,482,271,482,271,131" style="stroke: #000000; stroke-width: 1.5;"/><line style="stroke: #000000; stroke-width: 1.5;" x1="271" x2="502" y1="153.2969" y2="153.2969"/><text fill="#000000" font-family="sans-serif" font-size="14" font-weight="bold" lengthAdjust="spacingAndGlyphs" textLength="218" x="275" y="145.9951">Phpolar\CsrfProtection\Http</text><!--MD5=[8e860edd58322d7276ac762460b19afb]
cluster Psr\\Http\\Server--><polygon fill="#FFFFFF" points="22,131,150,131,157,153.2969,243,153.2969,243,281,22,281,22,131" style="stroke: #000000; stroke-width: 1.5;"/><line style="stroke: #000000; stroke-width: 1.5;" x1="22" x2="157" y1="153.2969" y2="153.2969"/><text fill="#000000" font-family="sans-serif" font-size="14" font-weight="bold" lengthAdjust="spacingAndGlyphs" textLength="122" x="26" y="145.9951">Psr\Http\Server</text><!--MD5=[4214a011deaa3a50b2f5d003099ceada]
cluster Phpolar\\CsrfProtection\\Storage--><polygon fill="#FFFFFF" points="30.5,24,283.5,24,290.5,46.2969,520,46.2969,520,107,30.5,107,30.5,24" style="stroke: #000000; stroke-width: 1.5;"/><line style="stroke: #000000; stroke-width: 1.5;" x1="30.5" x2="290.5" y1="46.2969" y2="46.2969"/><text fill="#000000" font-family="sans-serif" font-size="14" font-weight="bold" lengthAdjust="spacingAndGlyphs" textLength="247" x="34.5" y="38.9951">Phpolar\CsrfProtection\Storage</text><!--MD5=[e43d7e1031fd6c0e780976ee6e7f49d7]
class Phpolar\\CsrfProtection\\CsrfToken--><rect fill="#FEFECE" height="32" id="Phpolar\\CsrfProtection\\CsrfToken" style="stroke: #A80036; stroke-width: 1.5;" width="94" x="85.5" y="387"/><ellipse cx="100.5" cy="403" fill="#ADD1B2" rx="11" ry="11" style="stroke: #A80036; stroke-width: 1.0;"/><path d="M103.4688,408.6406 Q102.8906,408.9375 102.25,409.0781 Q101.6094,409.2344 100.9063,409.2344 Q98.4063,409.2344 97.0781,407.5938 Q95.7656,405.9375 95.7656,402.8125 Q95.7656,399.6875 97.0781,398.0313 Q98.4063,396.375 100.9063,396.375 Q101.6094,396.375 102.25,396.5313 Q102.9063,396.6875 103.4688,396.9844 L103.4688,399.7031 Q102.8438,399.125 102.25,398.8594 Q101.6563,398.5781 101.0313,398.5781 Q99.6875,398.5781 99,399.6563 Q98.3125,400.7188 98.3125,402.8125 Q98.3125,404.9063 99,405.9844 Q99.6875,407.0469 101.0313,407.0469 Q101.6563,407.0469 102.25,406.7813 Q102.8438,406.5 103.4688,405.9219 L103.4688,408.6406 Z "/><text fill="#000000" font-family="sans-serif" font-size="12" lengthAdjust="spacingAndGlyphs" textLength="62" x="114.5" y="407.1543">CsrfToken</text><!--MD5=[2df211a110cf1108ed553ba6a44c5eb1]
class Phpolar\\CsrfProtection\\Http\\AbstractCsrfProtectionMiddleware--><rect fill="#FEFECE" height="32" id="Phpolar\\CsrfProtection\\Http\\AbstractCsrfProtectionMiddleware" style="stroke: #A80036; stroke-width: 1.5;" width="242" x="298.5" y="166"/><ellipse cx="313.5" cy="182" fill="#A9DCDF" rx="11" ry="11" style="stroke: #A80036; stroke-width: 1.0;"/><path d="M313.6094,177.3438 L312.4531,182.4219 L314.7813,182.4219 L313.6094,177.3438 Z M312.125,175.1094 L315.1094,175.1094 L318.4688,187.5 L316.0156,187.5 L315.25,184.4375 L311.9688,184.4375 L311.2188,187.5 L308.7813,187.5 L312.125,175.1094 Z "/><text fill="#000000" font-family="sans-serif" font-size="12" font-style="italic" lengthAdjust="spacingAndGlyphs" textLength="210" x="327.5" y="186.1543">AbstractCsrfProtectionMiddleware</text><!--MD5=[e408896b58cb043f153e1cc54118f0bf]
class Phpolar\\CsrfProtection\\Http\\CsrfProtectionRequestHandler--><rect fill="#FEFECE" height="32" id="Phpolar\\CsrfProtection\\Http\\CsrfProtectionRequestHandler" style="stroke: #A80036; stroke-width: 1.5;" width="222" x="308.5" y="233"/><ellipse cx="323.5" cy="249" fill="#ADD1B2" rx="11" ry="11" style="stroke: #A80036; stroke-width: 1.0;"/><path d="M326.4688,254.6406 Q325.8906,254.9375 325.25,255.0781 Q324.6094,255.2344 323.9063,255.2344 Q321.4063,255.2344 320.0781,253.5938 Q318.7656,251.9375 318.7656,248.8125 Q318.7656,245.6875 320.0781,244.0313 Q321.4063,242.375 323.9063,242.375 Q324.6094,242.375 325.25,242.5313 Q325.9063,242.6875 326.4688,242.9844 L326.4688,245.7031 Q325.8438,245.125 325.25,244.8594 Q324.6563,244.5781 324.0313,244.5781 Q322.6875,244.5781 322,245.6563 Q321.3125,246.7188 321.3125,248.8125 Q321.3125,250.9063 322,251.9844 Q322.6875,253.0469 324.0313,253.0469 Q324.6563,253.0469 325.25,252.7813 Q325.8438,252.5 326.4688,251.9219 L326.4688,254.6406 Z "/><text fill="#000000" font-family="sans-serif" font-size="12" lengthAdjust="spacingAndGlyphs" textLength="190" x="337.5" y="253.1543">CsrfProtectionRequestHandler</text><!--MD5=[a793c685d1399d54fc1277f95f0636e2]
class Phpolar\\CsrfProtection\\Http\\CsrfRequestCheckMiddleware--><rect fill="#FEFECE" height="32" id="Phpolar\\CsrfProtection\\Http\\CsrfRequestCheckMiddleware" style="stroke: #A80036; stroke-width: 1.5;" width="216" x="616.5" y="233"/><ellipse cx="631.5" cy="249" fill="#ADD1B2" rx="11" ry="11" style="stroke: #A80036; stroke-width: 1.0;"/><path d="M634.4688,254.6406 Q633.8906,254.9375 633.25,255.0781 Q632.6094,255.2344 631.9063,255.2344 Q629.4063,255.2344 628.0781,253.5938 Q626.7656,251.9375 626.7656,248.8125 Q626.7656,245.6875 628.0781,244.0313 Q629.4063,242.375 631.9063,242.375 Q632.6094,242.375 633.25,242.5313 Q633.9063,242.6875 634.4688,242.9844 L634.4688,245.7031 Q633.8438,245.125 633.25,244.8594 Q632.6563,244.5781 632.0313,244.5781 Q630.6875,244.5781 630,245.6563 Q629.3125,246.7188 629.3125,248.8125 Q629.3125,250.9063 630,251.9844 Q630.6875,253.0469 632.0313,253.0469 Q632.6563,253.0469 633.25,252.7813 Q633.8438,252.5 634.4688,251.9219 L634.4688,254.6406 Z "/><text fill="#000000" font-family="sans-serif" font-size="12" lengthAdjust="spacingAndGlyphs" textLength="184" x="645.5" y="253.1543">CsrfRequestCheckMiddleware</text><!--MD5=[23ff9cedbc439124cac828ea0e475bb0]
class Phpolar\\CsrfProtection\\Http\\CsrfResponseFilterMiddleware--><rect fill="#FEFECE" height="32" id="Phpolar\\CsrfProtection\\Http\\CsrfResponseFilterMiddleware" style="stroke: #A80036; stroke-width: 1.5;" width="219" x="615" y="166"/><ellipse cx="630" cy="182" fill="#ADD1B2" rx="11" ry="11" style="stroke: #A80036; stroke-width: 1.0;"/><path d="M632.9688,187.6406 Q632.3906,187.9375 631.75,188.0781 Q631.1094,188.2344 630.4063,188.2344 Q627.9063,188.2344 626.5781,186.5938 Q625.2656,184.9375 625.2656,181.8125 Q625.2656,178.6875 626.5781,177.0313 Q627.9063,175.375 630.4063,175.375 Q631.1094,175.375 631.75,175.5313 Q632.4063,175.6875 632.9688,175.9844 L632.9688,178.7031 Q632.3438,178.125 631.75,177.8594 Q631.1563,177.5781 630.5313,177.5781 Q629.1875,177.5781 628.5,178.6563 Q627.8125,179.7188 627.8125,181.8125 Q627.8125,183.9063 628.5,184.9844 Q629.1875,186.0469 630.5313,186.0469 Q631.1563,186.0469 631.75,185.7813 Q632.3438,185.5 632.9688,184.9219 L632.9688,187.6406 Z "/><text fill="#000000" font-family="sans-serif" font-size="12" lengthAdjust="spacingAndGlyphs" textLength="187" x="644" y="186.1543">CsrfResponseFilterMiddleware</text><!--MD5=[d75348abb0036c6d747b19f0a32bdd53]
class Phpolar\\CsrfProtection\\Http\\CsrfResponseFilterMiddlewareFactory--><rect fill="#FEFECE" height="32" id="Phpolar\\CsrfProtection\\Http\\CsrfResponseFilterMiddlewareFactory" style="stroke: #A80036; stroke-width: 1.5;" width="265" x="287" y="300"/><ellipse cx="302" cy="316" fill="#ADD1B2" rx="11" ry="11" style="stroke: #A80036; stroke-width: 1.0;"/><path d="M304.9688,321.6406 Q304.3906,321.9375 303.75,322.0781 Q303.1094,322.2344 302.4063,322.2344 Q299.9063,322.2344 298.5781,320.5938 Q297.2656,318.9375 297.2656,315.8125 Q297.2656,312.6875 298.5781,311.0313 Q299.9063,309.375 302.4063,309.375 Q303.1094,309.375 303.75,309.5313 Q304.4063,309.6875 304.9688,309.9844 L304.9688,312.7031 Q304.3438,312.125 303.75,311.8594 Q303.1563,311.5781 302.5313,311.5781 Q301.1875,311.5781 300.5,312.6563 Q299.8125,313.7188 299.8125,315.8125 Q299.8125,317.9063 300.5,318.9844 Q301.1875,320.0469 302.5313,320.0469 Q303.1563,320.0469 303.75,319.7813 Q304.3438,319.5 304.9688,318.9219 L304.9688,321.6406 Z "/><text fill="#000000" font-family="sans-serif" font-size="12" lengthAdjust="spacingAndGlyphs" textLength="233" x="316" y="320.1543">CsrfResponseFilterMiddlewareFactory</text><!--MD5=[f150a134afe4e2d386ee9b8b2d48c314]
class Phpolar\\CsrfProtection\\Http\\ResponseFilterContext--><rect fill="#FEFECE" height="32" id="Phpolar\\CsrfProtection\\Http\\ResponseFilterContext" style="stroke: #A80036; stroke-width: 1.5;" width="173" x="333" y="367"/><ellipse cx="348" cy="383" fill="#ADD1B2" rx="11" ry="11" style="stroke: #A80036; stroke-width: 1.0;"/><path d="M350.9688,388.6406 Q350.3906,388.9375 349.75,389.0781 Q349.1094,389.2344 348.4063,389.2344 Q345.9063,389.2344 344.5781,387.5938 Q343.2656,385.9375 343.2656,382.8125 Q343.2656,379.6875 344.5781,378.0313 Q345.9063,376.375 348.4063,376.375 Q349.1094,376.375 349.75,376.5313 Q350.4063,376.6875 350.9688,376.9844 L350.9688,379.7031 Q350.3438,379.125 349.75,378.8594 Q349.1563,378.5781 348.5313,378.5781 Q347.1875,378.5781 346.5,379.6563 Q345.8125,380.7188 345.8125,382.8125 Q345.8125,384.9063 346.5,385.9844 Q347.1875,387.0469 348.5313,387.0469 Q349.1563,387.0469 349.75,386.7813 Q350.3438,386.5 350.9688,385.9219 L350.9688,388.6406 Z "/><text fill="#000000" font-family="sans-serif" font-size="12" lengthAdjust="spacingAndGlyphs" textLength="141" x="362" y="387.1543">ResponseFilterContext</text><!--MD5=[616093699369591e5900d727455f1e1e]
class Phpolar\\CsrfProtection\\Http\\ResponseFilterPatternStrategy--><rect fill="#FEFECE" height="32" id="Phpolar\\CsrfProtection\\Http\\ResponseFilterPatternStrategy" style="stroke: #A80036; stroke-width: 1.5;" width="225" x="612" y="434"/><ellipse cx="627" cy="450" fill="#ADD1B2" rx="11" ry="11" style="stroke: #A80036; stroke-width: 1.0;"/><path d="M629.9688,455.6406 Q629.3906,455.9375 628.75,456.0781 Q628.1094,456.2344 627.4063,456.2344 Q624.9063,456.2344 623.5781,454.5938 Q622.2656,452.9375 622.2656,449.8125 Q622.2656,446.6875 623.5781,445.0313 Q624.9063,443.375 627.4063,443.375 Q628.1094,443.375 628.75,443.5313 Q629.4063,443.6875 629.9688,443.9844 L629.9688,446.7031 Q629.3438,446.125 628.75,445.8594 Q628.1563,445.5781 627.5313,445.5781 Q626.1875,445.5781 625.5,446.6563 Q624.8125,447.7188 624.8125,449.8125 Q624.8125,451.9063 625.5,452.9844 Q626.1875,454.0469 627.5313,454.0469 Q628.1563,454.0469 628.75,453.7813 Q629.3438,453.5 629.9688,452.9219 L629.9688,455.6406 Z "/><text fill="#000000" font-family="sans-serif" font-size="12" lengthAdjust="spacingAndGlyphs" textLength="193" x="641" y="454.1543">ResponseFilterPatternStrategy</text><!--MD5=[5fe8943d5d67ae48496794a71a644222]
class Phpolar\\CsrfProtection\\Http\\ResponseFilterStrategyInterface--><rect fill="#FEFECE" height="32" id="Phpolar\\CsrfProtection\\Http\\ResponseFilterStrategyInterface" style="stroke: #A80036; stroke-width: 1.5;" width="234" x="302.5" y="434"/><ellipse cx="317.5" cy="450" fill="#B4A7E5" rx="11" ry="11" style="stroke: #A80036; stroke-width: 1.0;"/><path d="M313.4219,445.7656 L313.4219,443.6094 L320.8125,443.6094 L320.8125,445.7656 L318.3438,445.7656 L318.3438,453.8438 L320.8125,453.8438 L320.8125,456 L313.4219,456 L313.4219,453.8438 L315.8906,453.8438 L315.8906,445.7656 L313.4219,445.7656 Z "/><text fill="#000000" font-family="sans-serif" font-size="12" font-style="italic" lengthAdjust="spacingAndGlyphs" textLength="202" x="331.5" y="454.1543">ResponseFilterStrategyInterface</text><!--MD5=[63ae031b154172381f1449a0b17771a7]
class Phpolar\\CsrfProtection\\Http\\ResponseFilterScanStrategy--><rect fill="#FEFECE" height="32" id="Phpolar\\CsrfProtection\\Http\\ResponseFilterScanStrategy" style="stroke: #A80036; stroke-width: 1.5;" width="209" x="620" y="367"/><ellipse cx="635" cy="383" fill="#ADD1B2" rx="11" ry="11" style="stroke: #A80036; stroke-width: 1.0;"/><path d="M637.9688,388.6406 Q637.3906,388.9375 636.75,389.0781 Q636.1094,389.2344 635.4063,389.2344 Q632.9063,389.2344 631.5781,387.5938 Q630.2656,385.9375 630.2656,382.8125 Q630.2656,379.6875 631.5781,378.0313 Q632.9063,376.375 635.4063,376.375 Q636.1094,376.375 636.75,376.5313 Q637.4063,376.6875 637.9688,376.9844 L637.9688,379.7031 Q637.3438,379.125 636.75,378.8594 Q636.1563,378.5781 635.5313,378.5781 Q634.1875,378.5781 633.5,379.6563 Q632.8125,380.7188 632.8125,382.8125 Q632.8125,384.9063 633.5,385.9844 Q634.1875,387.0469 635.5313,387.0469 Q636.1563,387.0469 636.75,386.7813 Q637.3438,386.5 637.9688,385.9219 L637.9688,388.6406 Z "/><text fill="#000000" font-family="sans-serif" font-size="12" lengthAdjust="spacingAndGlyphs" textLength="177" x="649" y="387.1543">ResponseFilterScanStrategy</text><!--MD5=[c9ec0e3c1f519dc0c5f59d9d724f4fc8]
class Psr\\Http\\Server\\MiddlewareInterface--><rect fill="#FEFECE" height="32" id="Psr\\Http\\Server\\MiddlewareInterface" style="stroke: #A80036; stroke-width: 1.5;" width="160" x="52.5" y="166"/><ellipse cx="67.5" cy="182" fill="#B4A7E5" rx="11" ry="11" style="stroke: #A80036; stroke-width: 1.0;"/><path d="M63.4219,177.7656 L63.4219,175.6094 L70.8125,175.6094 L70.8125,177.7656 L68.3438,177.7656 L68.3438,185.8438 L70.8125,185.8438 L70.8125,188 L63.4219,188 L63.4219,185.8438 L65.8906,185.8438 L65.8906,177.7656 L63.4219,177.7656 Z "/><text fill="#000000" font-family="sans-serif" font-size="12" font-style="italic" lengthAdjust="spacingAndGlyphs" textLength="128" x="81.5" y="186.1543">MiddlewareInterface</text><!--MD5=[eb647d64e0e505aae508247625db42c9]
class Psr\\Http\\Server\\RequestHandlerInterface--><rect fill="#FEFECE" height="32" id="Psr\\Http\\Server\\RequestHandlerInterface" style="stroke: #A80036; stroke-width: 1.5;" width="189" x="38" y="233"/><ellipse cx="53" cy="249" fill="#B4A7E5" rx="11" ry="11" style="stroke: #A80036; stroke-width: 1.0;"/><path d="M48.9219,244.7656 L48.9219,242.6094 L56.3125,242.6094 L56.3125,244.7656 L53.8438,244.7656 L53.8438,252.8438 L56.3125,252.8438 L56.3125,255 L48.9219,255 L48.9219,252.8438 L51.3906,252.8438 L51.3906,244.7656 L48.9219,244.7656 Z "/><text fill="#000000" font-family="sans-serif" font-size="12" font-style="italic" lengthAdjust="spacingAndGlyphs" textLength="157" x="67" y="253.1543">RequestHandlerInterface</text><!--MD5=[76ef2183bb69fb596acc56381e5ad73a]
class Phpolar\\CsrfProtection\\Storage\\AbstractTokenStorage--><rect fill="#FEFECE" height="32" id="Phpolar\\CsrfProtection\\Storage\\AbstractTokenStorage" style="stroke: #A80036; stroke-width: 1.5;" width="172" x="46.5" y="59"/><ellipse cx="61.5" cy="75" fill="#A9DCDF" rx="11" ry="11" style="stroke: #A80036; stroke-width: 1.0;"/><path d="M61.6094,70.3438 L60.4531,75.4219 L62.7813,75.4219 L61.6094,70.3438 Z M60.125,68.1094 L63.1094,68.1094 L66.4688,80.5 L64.0156,80.5 L63.25,77.4375 L59.9688,77.4375 L59.2188,80.5 L56.7813,80.5 L60.125,68.1094 Z "/><text fill="#000000" font-family="sans-serif" font-size="12" font-style="italic" lengthAdjust="spacingAndGlyphs" textLength="140" x="75.5" y="79.1543">AbstractTokenStorage</text><!--MD5=[941bddd591b0bcc36ba0f86d7c1cce8e]
class Phpolar\\CsrfProtection\\Storage\\SessionTokenStorage--><rect fill="#FEFECE" height="32" id="Phpolar\\CsrfProtection\\Storage\\SessionTokenStorage" style="stroke: #A80036; stroke-width: 1.5;" width="169" x="335" y="59"/><ellipse cx="350" cy="75" fill="#ADD1B2" rx="11" ry="11" style="stroke: #A80036; stroke-width: 1.0;"/><path d="M352.9688,80.6406 Q352.3906,80.9375 351.75,81.0781 Q351.1094,81.2344 350.4063,81.2344 Q347.9063,81.2344 346.5781,79.5938 Q345.2656,77.9375 345.2656,74.8125 Q345.2656,71.6875 346.5781,70.0313 Q347.9063,68.375 350.4063,68.375 Q351.1094,68.375 351.75,68.5313 Q352.4063,68.6875 352.9688,68.9844 L352.9688,71.7031 Q352.3438,71.125 351.75,70.8594 Q351.1563,70.5781 350.5313,70.5781 Q349.1875,70.5781 348.5,71.6563 Q347.8125,72.7188 347.8125,74.8125 Q347.8125,76.9063 348.5,77.9844 Q349.1875,79.0469 350.5313,79.0469 Q351.1563,79.0469 351.75,78.7813 Q352.3438,78.5 352.9688,77.9219 L352.9688,80.6406 Z "/><text fill="#000000" font-family="sans-serif" font-size="12" lengthAdjust="spacingAndGlyphs" textLength="137" x="364" y="79.1543">SessionTokenStorage</text><!--MD5=[c31c898e7b8870088af5ac02311c6304]
reverse link Psr\\Http\\Server\\MiddlewareInterface to Phpolar\\CsrfProtection\\Http\\AbstractCsrfProtectionMiddleware--><path d="M232.83,182 C232.83,182 298.38,182 298.38,182 " fill="none" id="Psr\\Http\\Server\\MiddlewareInterface&lt;-Phpolar\\CsrfProtection\\Http\\AbstractCsrfProtectionMiddleware" style="stroke: #516F42; stroke-width: 1.0; stroke-dasharray: 7.0,7.0;"/><polygon fill="none" points="232.83,189,212.83,182,232.83,175,232.83,189" style="stroke: #516F42; stroke-width: 1.0;"/><!--MD5=[502ca5a7ee96f44f5e257cb82cd36f2a]
reverse link Psr\\Http\\Server\\RequestHandlerInterface to Phpolar\\CsrfProtection\\Http\\CsrfProtectionRequestHandler--><path d="M247.27,249 C247.27,249 308.39,249 308.39,249 " fill="none" id="Psr\\Http\\Server\\RequestHandlerInterface&lt;-Phpolar\\CsrfProtection\\Http\\CsrfProtectionRequestHandler" style="stroke: #516F42; stroke-width: 1.0; stroke-dasharray: 7.0,7.0;"/><polygon fill="none" points="247.27,256,227.27,249,247.27,242,247.27,256" style="stroke: #516F42; stroke-width: 1.0;"/><!--MD5=[4200eca342f3e1110adf8a1616f3ac0e]
reverse link Phpolar\\CsrfProtection\\Http\\AbstractCsrfProtectionMiddleware to Phpolar\\CsrfProtection\\Http\\CsrfRequestCheckMiddleware--><path d="M536,218.22 C536,218.22 536,249 536,249 C536,249 574.37,249 616.49,249 " fill="none" id="Phpolar\\CsrfProtection\\Http\\AbstractCsrfProtectionMiddleware&lt;-Phpolar\\CsrfProtection\\Http\\CsrfRequestCheckMiddleware" style="stroke: #516F42; stroke-width: 1.0;"/><polygon fill="none" points="529,218.22,536,198.22,543,218.22,529,218.22" style="stroke: #516F42; stroke-width: 1.0;"/><!--MD5=[609480a5660ed7d1466f2745ff92c52b]
reverse link Phpolar\\CsrfProtection\\Http\\AbstractCsrfProtectionMiddleware to Phpolar\\CsrfProtection\\Http\\CsrfResponseFilterMiddleware--><path d="M560.92,182 C560.92,182 614.86,182 614.86,182 " fill="none" id="Phpolar\\CsrfProtection\\Http\\AbstractCsrfProtectionMiddleware&lt;-Phpolar\\CsrfProtection\\Http\\CsrfResponseFilterMiddleware" style="stroke: #516F42; stroke-width: 1.0;"/><polygon fill="none" points="560.92,189,540.92,182,560.92,175,560.92,189" style="stroke: #516F42; stroke-width: 1.0;"/><!--MD5=[e1654aca38ecd956c37074565c76948f]
reverse link Phpolar\\CsrfProtection\\Http\\ResponseFilterStrategyInterface to Phpolar\\CsrfProtection\\Http\\ResponseFilterPatternStrategy--><path d="M556.55,450 C556.55,450 611.78,450 611.78,450 " fill="none" id="Phpolar\\CsrfProtection\\Http\\ResponseFilterStrategyInterface&lt;-Phpolar\\CsrfProtection\\Http\\ResponseFilterPatternStrategy" style="stroke: #516F42; stroke-width: 1.0; stroke-dasharray: 7.0,7.0;"/><polygon fill="none" points="556.55,457,536.55,450,556.55,443,556.55,457" style="stroke: #516F42; stroke-width: 1.0;"/><!--MD5=[bee1cb59dafe78b06238b48e3dcacf0c]
reverse link Phpolar\\CsrfProtection\\Http\\ResponseFilterStrategyInterface to Phpolar\\CsrfProtection\\Http\\ResponseFilterScanStrategy--><path d="M522,413.78 C522,413.78 522,383 522,383 C522,383 570.47,383 619.99,383 " fill="none" id="Phpolar\\CsrfProtection\\Http\\ResponseFilterStrategyInterface&lt;-Phpolar\\CsrfProtection\\Http\\ResponseFilterScanStrategy" style="stroke: #516F42; stroke-width: 1.0; stroke-dasharray: 7.0,7.0;"/><polygon fill="none" points="529,413.78,522,433.78,515,413.78,529,413.78" style="stroke: #516F42; stroke-width: 1.0;"/><!--MD5=[ebe49e231e210efe761595e85ab441b7]
reverse link Phpolar\\CsrfProtection\\Storage\\AbstractTokenStorage to Phpolar\\CsrfProtection\\Storage\\SessionTokenStorage--><path d="M238.61,75 C238.61,75 334.93,75 334.93,75 " fill="none" id="Phpolar\\CsrfProtection\\Storage\\AbstractTokenStorage&lt;-Phpolar\\CsrfProtection\\Storage\\SessionTokenStorage" style="stroke: #516F42; stroke-width: 1.0;"/><polygon fill="none" points="238.61,82,218.61,75,238.61,68,238.61,82" style="stroke: #516F42; stroke-width: 1.0;"/><!--MD5=[c5e879a1c7196f64cd3a270dd45374f6]
@startuml
   skinparam ArrowColor #516f42
   skinparam activityBorderColor #516f42
   skinparam activityBackgroundColor #ffffff
   skinparam activityDiamondBorderColor #516f42
   skinparam activityDiamondBackgroundColor #ffffff
   skinparam shadowing false

skinparam shadowing false
skinparam linetype ortho
hide empty members
left to right direction
set namespaceSeparator \\


class \\Phpolar\\CsrfProtection\\CsrfToken {
}

abstract class \\Phpolar\\CsrfProtection\\Http\\AbstractCsrfProtectionMiddleware implements \\Psr\\Http\\Server\\MiddlewareInterface {
}

class \\Phpolar\\CsrfProtection\\Http\\CsrfProtectionRequestHandler implements \\Psr\\Http\\Server\\RequestHandlerInterface {
}

class \\Phpolar\\CsrfProtection\\Http\\CsrfRequestCheckMiddleware extends \\Phpolar\\CsrfProtection\\Http\\AbstractCsrfProtectionMiddleware {
}

class \\Phpolar\\CsrfProtection\\Http\\CsrfResponseFilterMiddleware extends \\Phpolar\\CsrfProtection\\Http\\AbstractCsrfProtectionMiddleware {
}

class \\Phpolar\\CsrfProtection\\Http\\CsrfResponseFilterMiddlewareFactory {
}

class \\Phpolar\\CsrfProtection\\Http\\ResponseFilterContext {
}

class \\Phpolar\\CsrfProtection\\Http\\ResponseFilterPatternStrategy implements \\Phpolar\\CsrfProtection\\Http\\ResponseFilterStrategyInterface {
}

class \\Phpolar\\CsrfProtection\\Http\\ResponseFilterScanStrategy implements \\Phpolar\\CsrfProtection\\Http\\ResponseFilterStrategyInterface {
}

interface \\Phpolar\\CsrfProtection\\Http\\ResponseFilterStrategyInterface {
}

abstract class \\Phpolar\\CsrfProtection\\Storage\\AbstractTokenStorage {
}

class \\Phpolar\\CsrfProtection\\Storage\\SessionTokenStorage extends \\Phpolar\\CsrfProtection\\Storage\\AbstractTokenStorage {
}

@enduml

PlantUML version 1.2020.02(Sun Mar 01 04:22:07 CST 2020)
(GPL source distribution)
Java Runtime: OpenJDK Runtime Environment
JVM: OpenJDK 64-Bit Server VM
Java Version: 11.0.17+8-post-Ubuntu-1ubuntu222.04
Operating System: Linux
Default Encoding: UTF-8
Language: en
Country: US
--></g></svg>