<?xml version="1.0" encoding="UTF-8" standalone="no"?><svg xmlns="http://www.w3.org/2000/svg" xmlns:xlink="http://www.w3.org/1999/xlink" contentScriptType="application/ecmascript" contentStyleType="text/css" height="534px" preserveAspectRatio="none" style="width:776px;height:534px;" version="1.1" viewBox="0 0 776 534" width="776px" zoomAndPan="magnify"><defs/><g><!--MD5=[540ebe81cd522f86a29871f64de41617]
cluster Phpolar\\CsrfProtection--><polygon fill="#FFFFFF" points="300,439,486,439,493,461.2969,496,461.2969,496,522,300,522,300,439" style="stroke: #000000; stroke-width: 1.5;"/><line style="stroke: #000000; stroke-width: 1.5;" x1="300" x2="493" y1="461.2969" y2="461.2969"/><text fill="#000000" font-family="sans-serif" font-size="14" font-weight="bold" lengthAdjust="spacingAndGlyphs" textLength="180" x="304" y="453.9951">Phpolar\CsrfProtection</text><!--MD5=[b0599d64809b33a47852a51499c9b6df]
cluster Phpolar\\CsrfProtection\\Http--><polygon fill="#FFFFFF" points="271,24,495,24,502,46.2969,525,46.2969,525,241,271,241,271,24" style="stroke: #000000; stroke-width: 1.5;"/><line style="stroke: #000000; stroke-width: 1.5;" x1="271" x2="502" y1="46.2969" y2="46.2969"/><text fill="#000000" font-family="sans-serif" font-size="14" font-weight="bold" lengthAdjust="spacingAndGlyphs" textLength="218" x="275" y="38.9951">Phpolar\CsrfProtection\Http</text><!--MD5=[8e860edd58322d7276ac762460b19afb]
cluster Psr\\Http\\Server--><polygon fill="#FFFFFF" points="22,24,150,24,157,46.2969,243,46.2969,243,174,22,174,22,24" style="stroke: #000000; stroke-width: 1.5;"/><line style="stroke: #000000; stroke-width: 1.5;" x1="22" x2="157" y1="46.2969" y2="46.2969"/><text fill="#000000" font-family="sans-serif" font-size="14" font-weight="bold" lengthAdjust="spacingAndGlyphs" textLength="122" x="26" y="38.9951">Psr\Http\Server</text><!--MD5=[4214a011deaa3a50b2f5d003099ceada]
cluster Phpolar\\CsrfProtection\\Storage--><polygon fill="#FFFFFF" points="296,265,549,265,556,287.2969,754,287.2969,754,415,296,415,296,265" style="stroke: #000000; stroke-width: 1.5;"/><line style="stroke: #000000; stroke-width: 1.5;" x1="296" x2="556" y1="287.2969" y2="287.2969"/><text fill="#000000" font-family="sans-serif" font-size="14" font-weight="bold" lengthAdjust="spacingAndGlyphs" textLength="247" x="300" y="279.9951">Phpolar\CsrfProtection\Storage</text><!--MD5=[e43d7e1031fd6c0e780976ee6e7f49d7]
class Phpolar\\CsrfProtection\\CsrfToken--><rect fill="#FEFECE" height="32" id="Phpolar\\CsrfProtection\\CsrfToken" style="stroke: #A80036; stroke-width: 1.5;" width="94" x="351" y="474"/><ellipse cx="366" cy="490" fill="#ADD1B2" rx="11" ry="11" style="stroke: #A80036; stroke-width: 1.0;"/><path d="M368.9688,495.6406 Q368.3906,495.9375 367.75,496.0781 Q367.1094,496.2344 366.4063,496.2344 Q363.9063,496.2344 362.5781,494.5938 Q361.2656,492.9375 361.2656,489.8125 Q361.2656,486.6875 362.5781,485.0313 Q363.9063,483.375 366.4063,483.375 Q367.1094,483.375 367.75,483.5313 Q368.4063,483.6875 368.9688,483.9844 L368.9688,486.7031 Q368.3438,486.125 367.75,485.8594 Q367.1563,485.5781 366.5313,485.5781 Q365.1875,485.5781 364.5,486.6563 Q363.8125,487.7188 363.8125,489.8125 Q363.8125,491.9063 364.5,492.9844 Q365.1875,494.0469 366.5313,494.0469 Q367.1563,494.0469 367.75,493.7813 Q368.3438,493.5 368.9688,492.9219 L368.9688,495.6406 Z "/><text fill="#000000" font-family="sans-serif" font-size="12" lengthAdjust="spacingAndGlyphs" textLength="62" x="380" y="494.1543">CsrfToken</text><!--MD5=[e408896b58cb043f153e1cc54118f0bf]
class Phpolar\\CsrfProtection\\Http\\CsrfProtectionRequestHandler--><rect fill="#FEFECE" height="32" id="Phpolar\\CsrfProtection\\Http\\CsrfProtectionRequestHandler" style="stroke: #A80036; stroke-width: 1.5;" width="222" x="287" y="59"/><ellipse cx="302" cy="75" fill="#ADD1B2" rx="11" ry="11" style="stroke: #A80036; stroke-width: 1.0;"/><path d="M304.9688,80.6406 Q304.3906,80.9375 303.75,81.0781 Q303.1094,81.2344 302.4063,81.2344 Q299.9063,81.2344 298.5781,79.5938 Q297.2656,77.9375 297.2656,74.8125 Q297.2656,71.6875 298.5781,70.0313 Q299.9063,68.375 302.4063,68.375 Q303.1094,68.375 303.75,68.5313 Q304.4063,68.6875 304.9688,68.9844 L304.9688,71.7031 Q304.3438,71.125 303.75,70.8594 Q303.1563,70.5781 302.5313,70.5781 Q301.1875,70.5781 300.5,71.6563 Q299.8125,72.7188 299.8125,74.8125 Q299.8125,76.9063 300.5,77.9844 Q301.1875,79.0469 302.5313,79.0469 Q303.1563,79.0469 303.75,78.7813 Q304.3438,78.5 304.9688,77.9219 L304.9688,80.6406 Z "/><text fill="#000000" font-family="sans-serif" font-size="12" lengthAdjust="spacingAndGlyphs" textLength="190" x="316" y="79.1543">CsrfProtectionRequestHandler</text><!--MD5=[a793c685d1399d54fc1277f95f0636e2]
class Phpolar\\CsrfProtection\\Http\\CsrfRequestCheckMiddleware--><rect fill="#FEFECE" height="32" id="Phpolar\\CsrfProtection\\Http\\CsrfRequestCheckMiddleware" style="stroke: #A80036; stroke-width: 1.5;" width="216" x="290" y="126"/><ellipse cx="305" cy="142" fill="#ADD1B2" rx="11" ry="11" style="stroke: #A80036; stroke-width: 1.0;"/><path d="M307.9688,147.6406 Q307.3906,147.9375 306.75,148.0781 Q306.1094,148.2344 305.4063,148.2344 Q302.9063,148.2344 301.5781,146.5938 Q300.2656,144.9375 300.2656,141.8125 Q300.2656,138.6875 301.5781,137.0313 Q302.9063,135.375 305.4063,135.375 Q306.1094,135.375 306.75,135.5313 Q307.4063,135.6875 307.9688,135.9844 L307.9688,138.7031 Q307.3438,138.125 306.75,137.8594 Q306.1563,137.5781 305.5313,137.5781 Q304.1875,137.5781 303.5,138.6563 Q302.8125,139.7188 302.8125,141.8125 Q302.8125,143.9063 303.5,144.9844 Q304.1875,146.0469 305.5313,146.0469 Q306.1563,146.0469 306.75,145.7813 Q307.3438,145.5 307.9688,144.9219 L307.9688,147.6406 Z "/><text fill="#000000" font-family="sans-serif" font-size="12" lengthAdjust="spacingAndGlyphs" textLength="184" x="319" y="146.1543">CsrfRequestCheckMiddleware</text><!--MD5=[23ff9cedbc439124cac828ea0e475bb0]
class Phpolar\\CsrfProtection\\Http\\CsrfResponseFilterMiddleware--><rect fill="#FEFECE" height="32" id="Phpolar\\CsrfProtection\\Http\\CsrfResponseFilterMiddleware" style="stroke: #A80036; stroke-width: 1.5;" width="219" x="288.5" y="193"/><ellipse cx="303.5" cy="209" fill="#ADD1B2" rx="11" ry="11" style="stroke: #A80036; stroke-width: 1.0;"/><path d="M306.4688,214.6406 Q305.8906,214.9375 305.25,215.0781 Q304.6094,215.2344 303.9063,215.2344 Q301.4063,215.2344 300.0781,213.5938 Q298.7656,211.9375 298.7656,208.8125 Q298.7656,205.6875 300.0781,204.0313 Q301.4063,202.375 303.9063,202.375 Q304.6094,202.375 305.25,202.5313 Q305.9063,202.6875 306.4688,202.9844 L306.4688,205.7031 Q305.8438,205.125 305.25,204.8594 Q304.6563,204.5781 304.0313,204.5781 Q302.6875,204.5781 302,205.6563 Q301.3125,206.7188 301.3125,208.8125 Q301.3125,210.9063 302,211.9844 Q302.6875,213.0469 304.0313,213.0469 Q304.6563,213.0469 305.25,212.7813 Q305.8438,212.5 306.4688,211.9219 L306.4688,214.6406 Z "/><text fill="#000000" font-family="sans-serif" font-size="12" lengthAdjust="spacingAndGlyphs" textLength="187" x="317.5" y="213.1543">CsrfResponseFilterMiddleware</text><!--MD5=[eb647d64e0e505aae508247625db42c9]
class Psr\\Http\\Server\\RequestHandlerInterface--><rect fill="#FEFECE" height="32" id="Psr\\Http\\Server\\RequestHandlerInterface" style="stroke: #A80036; stroke-width: 1.5;" width="189" x="38" y="59"/><ellipse cx="53" cy="75" fill="#B4A7E5" rx="11" ry="11" style="stroke: #A80036; stroke-width: 1.0;"/><path d="M48.9219,70.7656 L48.9219,68.6094 L56.3125,68.6094 L56.3125,70.7656 L53.8438,70.7656 L53.8438,78.8438 L56.3125,78.8438 L56.3125,81 L48.9219,81 L48.9219,78.8438 L51.3906,78.8438 L51.3906,70.7656 L48.9219,70.7656 Z "/><text fill="#000000" font-family="sans-serif" font-size="12" font-style="italic" lengthAdjust="spacingAndGlyphs" textLength="157" x="67" y="79.1543">RequestHandlerInterface</text><!--MD5=[c9ec0e3c1f519dc0c5f59d9d724f4fc8]
class Psr\\Http\\Server\\MiddlewareInterface--><rect fill="#FEFECE" height="32" id="Psr\\Http\\Server\\MiddlewareInterface" style="stroke: #A80036; stroke-width: 1.5;" width="160" x="52.5" y="126"/><ellipse cx="67.5" cy="142" fill="#B4A7E5" rx="11" ry="11" style="stroke: #A80036; stroke-width: 1.0;"/><path d="M63.4219,137.7656 L63.4219,135.6094 L70.8125,135.6094 L70.8125,137.7656 L68.3438,137.7656 L68.3438,145.8438 L70.8125,145.8438 L70.8125,148 L63.4219,148 L63.4219,145.8438 L65.8906,145.8438 L65.8906,137.7656 L63.4219,137.7656 Z "/><text fill="#000000" font-family="sans-serif" font-size="12" font-style="italic" lengthAdjust="spacingAndGlyphs" textLength="128" x="81.5" y="146.1543">MiddlewareInterface</text><!--MD5=[6c01f87002a71310e20f1c157b1dc642]
class Phpolar\\CsrfProtection\\Storage\\AbstractSession--><rect fill="#FEFECE" height="32" id="Phpolar\\CsrfProtection\\Storage\\AbstractSession" style="stroke: #A80036; stroke-width: 1.5;" width="131" x="332.5" y="300"/><ellipse cx="347.5" cy="316" fill="#A9DCDF" rx="11" ry="11" style="stroke: #A80036; stroke-width: 1.0;"/><path d="M347.6094,311.3438 L346.4531,316.4219 L348.7813,316.4219 L347.6094,311.3438 Z M346.125,309.1094 L349.1094,309.1094 L352.4688,321.5 L350.0156,321.5 L349.25,318.4375 L345.9688,318.4375 L345.2188,321.5 L342.7813,321.5 L346.125,309.1094 Z "/><text fill="#000000" font-family="sans-serif" font-size="12" font-style="italic" lengthAdjust="spacingAndGlyphs" textLength="99" x="361.5" y="320.1543">AbstractSession</text><!--MD5=[76ef2183bb69fb596acc56381e5ad73a]
class Phpolar\\CsrfProtection\\Storage\\AbstractTokenStorage--><rect fill="#FEFECE" height="32" id="Phpolar\\CsrfProtection\\Storage\\AbstractTokenStorage" style="stroke: #A80036; stroke-width: 1.5;" width="172" x="312" y="367"/><ellipse cx="327" cy="383" fill="#A9DCDF" rx="11" ry="11" style="stroke: #A80036; stroke-width: 1.0;"/><path d="M327.1094,378.3438 L325.9531,383.4219 L328.2813,383.4219 L327.1094,378.3438 Z M325.625,376.1094 L328.6094,376.1094 L331.9688,388.5 L329.5156,388.5 L328.75,385.4375 L325.4688,385.4375 L324.7188,388.5 L322.2813,388.5 L325.625,376.1094 Z "/><text fill="#000000" font-family="sans-serif" font-size="12" font-style="italic" lengthAdjust="spacingAndGlyphs" textLength="140" x="341" y="387.1543">AbstractTokenStorage</text><!--MD5=[941bddd591b0bcc36ba0f86d7c1cce8e]
class Phpolar\\CsrfProtection\\Storage\\SessionTokenStorage--><rect fill="#FEFECE" height="32" id="Phpolar\\CsrfProtection\\Storage\\SessionTokenStorage" style="stroke: #A80036; stroke-width: 1.5;" width="169" x="569" y="367"/><ellipse cx="584" cy="383" fill="#ADD1B2" rx="11" ry="11" style="stroke: #A80036; stroke-width: 1.0;"/><path d="M586.9688,388.6406 Q586.3906,388.9375 585.75,389.0781 Q585.1094,389.2344 584.4063,389.2344 Q581.9063,389.2344 580.5781,387.5938 Q579.2656,385.9375 579.2656,382.8125 Q579.2656,379.6875 580.5781,378.0313 Q581.9063,376.375 584.4063,376.375 Q585.1094,376.375 585.75,376.5313 Q586.4063,376.6875 586.9688,376.9844 L586.9688,379.7031 Q586.3438,379.125 585.75,378.8594 Q585.1563,378.5781 584.5313,378.5781 Q583.1875,378.5781 582.5,379.6563 Q581.8125,380.7188 581.8125,382.8125 Q581.8125,384.9063 582.5,385.9844 Q583.1875,387.0469 584.5313,387.0469 Q585.1563,387.0469 585.75,386.7813 Q586.3438,386.5 586.9688,385.9219 L586.9688,388.6406 Z "/><text fill="#000000" font-family="sans-serif" font-size="12" lengthAdjust="spacingAndGlyphs" textLength="137" x="598" y="387.1543">SessionTokenStorage</text><!--MD5=[6d7587325826f8a3098f86c553795427]
class Phpolar\\CsrfProtection\\Storage\\SessionWrapper--><rect fill="#FEFECE" height="32" id="Phpolar\\CsrfProtection\\Storage\\SessionWrapper" style="stroke: #A80036; stroke-width: 1.5;" width="134" x="586.5" y="300"/><ellipse cx="601.5" cy="316" fill="#ADD1B2" rx="11" ry="11" style="stroke: #A80036; stroke-width: 1.0;"/><path d="M604.4688,321.6406 Q603.8906,321.9375 603.25,322.0781 Q602.6094,322.2344 601.9063,322.2344 Q599.4063,322.2344 598.0781,320.5938 Q596.7656,318.9375 596.7656,315.8125 Q596.7656,312.6875 598.0781,311.0313 Q599.4063,309.375 601.9063,309.375 Q602.6094,309.375 603.25,309.5313 Q603.9063,309.6875 604.4688,309.9844 L604.4688,312.7031 Q603.8438,312.125 603.25,311.8594 Q602.6563,311.5781 602.0313,311.5781 Q600.6875,311.5781 600,312.6563 Q599.3125,313.7188 599.3125,315.8125 Q599.3125,317.9063 600,318.9844 Q600.6875,320.0469 602.0313,320.0469 Q602.6563,320.0469 603.25,319.7813 Q603.8438,319.5 604.4688,318.9219 L604.4688,321.6406 Z "/><text fill="#000000" font-family="sans-serif" font-size="12" lengthAdjust="spacingAndGlyphs" textLength="102" x="615.5" y="320.1543">SessionWrapper</text><!--MD5=[d590cb3cf1755846c9a17bad34216c08]
class Stringable--><rect fill="#FEFECE" height="32" id="Stringable" style="stroke: #A80036; stroke-width: 1.5;" width="96" x="84.5" y="474"/><ellipse cx="99.5" cy="490" fill="#B4A7E5" rx="11" ry="11" style="stroke: #A80036; stroke-width: 1.0;"/><path d="M95.4219,485.7656 L95.4219,483.6094 L102.8125,483.6094 L102.8125,485.7656 L100.3438,485.7656 L100.3438,493.8438 L102.8125,493.8438 L102.8125,496 L95.4219,496 L95.4219,493.8438 L97.8906,493.8438 L97.8906,485.7656 L95.4219,485.7656 Z "/><text fill="#000000" font-family="sans-serif" font-size="12" font-style="italic" lengthAdjust="spacingAndGlyphs" textLength="64" x="113.5" y="494.1543">Stringable</text><!--MD5=[37c6226e71accd699a8f10662815faf0]
class ArrayAccess--><rect fill="#FEFECE" height="32" id="ArrayAccess" style="stroke: #A80036; stroke-width: 1.5;" width="107" x="79" y="300"/><ellipse cx="94" cy="316" fill="#B4A7E5" rx="11" ry="11" style="stroke: #A80036; stroke-width: 1.0;"/><path d="M89.9219,311.7656 L89.9219,309.6094 L97.3125,309.6094 L97.3125,311.7656 L94.8438,311.7656 L94.8438,319.8438 L97.3125,319.8438 L97.3125,322 L89.9219,322 L89.9219,319.8438 L92.3906,319.8438 L92.3906,311.7656 L89.9219,311.7656 Z "/><text fill="#000000" font-family="sans-serif" font-size="12" font-style="italic" lengthAdjust="spacingAndGlyphs" textLength="75" x="108" y="320.1543">ArrayAccess</text><!--MD5=[29eed2bab4e6a2606ddfe6bbe6978f3f]
reverse link Stringable to Phpolar\\CsrfProtection\\CsrfToken--><path d="M200.58,490 C200.58,490 350.72,490 350.72,490 " fill="none" id="Stringable&lt;-Phpolar\\CsrfProtection\\CsrfToken" style="stroke: #516F42; stroke-width: 1.0; stroke-dasharray: 7.0,7.0;"/><polygon fill="none" points="200.58,497,180.58,490,200.58,483,200.58,497" style="stroke: #516F42; stroke-width: 1.0;"/><!--MD5=[502ca5a7ee96f44f5e257cb82cd36f2a]
reverse link Psr\\Http\\Server\\RequestHandlerInterface to Phpolar\\CsrfProtection\\Http\\CsrfProtectionRequestHandler--><path d="M247.23,75 C247.23,75 286.99,75 286.99,75 " fill="none" id="Psr\\Http\\Server\\RequestHandlerInterface&lt;-Phpolar\\CsrfProtection\\Http\\CsrfProtectionRequestHandler" style="stroke: #516F42; stroke-width: 1.0; stroke-dasharray: 7.0,7.0;"/><polygon fill="none" points="247.23,82,227.23,75,247.23,68,247.23,82" style="stroke: #516F42; stroke-width: 1.0;"/><!--MD5=[c1907b9c47702894484bf454c4dcb06a]
reverse link Psr\\Http\\Server\\MiddlewareInterface to Phpolar\\CsrfProtection\\Http\\CsrfRequestCheckMiddleware--><path d="M232.52,142 C232.52,142 289.69,142 289.69,142 " fill="none" id="Psr\\Http\\Server\\MiddlewareInterface&lt;-Phpolar\\CsrfProtection\\Http\\CsrfRequestCheckMiddleware" style="stroke: #516F42; stroke-width: 1.0; stroke-dasharray: 7.0,7.0;"/><polygon fill="none" points="232.52,149,212.52,142,232.52,135,232.52,149" style="stroke: #516F42; stroke-width: 1.0;"/><!--MD5=[c142cb715253b75370a1f377ab67aeda]
reverse link Psr\\Http\\Server\\MiddlewareInterface to Phpolar\\CsrfProtection\\Http\\CsrfResponseFilterMiddleware--><path d="M200,178.22 C200,178.22 200,209 200,209 C200,209 242.6,209 288.29,209 " fill="none" id="Psr\\Http\\Server\\MiddlewareInterface&lt;-Phpolar\\CsrfProtection\\Http\\CsrfResponseFilterMiddleware" style="stroke: #516F42; stroke-width: 1.0; stroke-dasharray: 7.0,7.0;"/><polygon fill="none" points="193,178.22,200,158.22,207,178.22,193,178.22" style="stroke: #516F42; stroke-width: 1.0;"/><!--MD5=[fbd01fc022588066522d46d2087d0d95]
reverse link ArrayAccess to Phpolar\\CsrfProtection\\Storage\\AbstractSession--><path d="M206.23,316 C206.23,316 332.13,316 332.13,316 " fill="none" id="ArrayAccess&lt;-Phpolar\\CsrfProtection\\Storage\\AbstractSession" style="stroke: #516F42; stroke-width: 1.0; stroke-dasharray: 7.0,7.0;"/><polygon fill="none" points="206.23,323,186.23,316,206.23,309,206.23,323" style="stroke: #516F42; stroke-width: 1.0;"/><!--MD5=[ebe49e231e210efe761595e85ab441b7]
reverse link Phpolar\\CsrfProtection\\Storage\\AbstractTokenStorage to Phpolar\\CsrfProtection\\Storage\\SessionTokenStorage--><path d="M504.14,383 C504.14,383 568.6,383 568.6,383 " fill="none" id="Phpolar\\CsrfProtection\\Storage\\AbstractTokenStorage&lt;-Phpolar\\CsrfProtection\\Storage\\SessionTokenStorage" style="stroke: #516F42; stroke-width: 1.0;"/><polygon fill="none" points="504.14,390,484.14,383,504.14,376,504.14,390" style="stroke: #516F42; stroke-width: 1.0;"/><!--MD5=[48dd120306f0d82c9de1d853df1b062b]
reverse link Phpolar\\CsrfProtection\\Storage\\AbstractSession to Phpolar\\CsrfProtection\\Storage\\SessionWrapper--><path d="M483.8,316 C483.8,316 586.15,316 586.15,316 " fill="none" id="Phpolar\\CsrfProtection\\Storage\\AbstractSession&lt;-Phpolar\\CsrfProtection\\Storage\\SessionWrapper" style="stroke: #516F42; stroke-width: 1.0;"/><polygon fill="none" points="483.8,323,463.8,316,483.8,309,483.8,323" style="stroke: #516F42; stroke-width: 1.0;"/><!--MD5=[6c62c858c8f4d5fa9ce8a09b2949f2ad]
@startuml
   skinparam ArrowColor #516f42
   skinparam activityBorderColor #516f42
   skinparam activityBackgroundColor #ffffff
   skinparam activityDiamondBorderColor #516f42
   skinparam activityDiamondBackgroundColor #ffffff
   skinparam shadowing false

skinparam shadowing false
skinparam linetype ortho
hide empty members
left to right direction
set namespaceSeparator \\


class \\Phpolar\\CsrfProtection\\CsrfToken implements \\Stringable {
}

class \\Phpolar\\CsrfProtection\\Http\\CsrfProtectionRequestHandler implements \\Psr\\Http\\Server\\RequestHandlerInterface {
}

class \\Phpolar\\CsrfProtection\\Http\\CsrfRequestCheckMiddleware implements \\Psr\\Http\\Server\\MiddlewareInterface {
}

class \\Phpolar\\CsrfProtection\\Http\\CsrfResponseFilterMiddleware implements \\Psr\\Http\\Server\\MiddlewareInterface {
}

abstract class \\Phpolar\\CsrfProtection\\Storage\\AbstractSession implements \\ArrayAccess {
}

abstract class \\Phpolar\\CsrfProtection\\Storage\\AbstractTokenStorage {
}

class \\Phpolar\\CsrfProtection\\Storage\\SessionTokenStorage extends \\Phpolar\\CsrfProtection\\Storage\\AbstractTokenStorage {
}

class \\Phpolar\\CsrfProtection\\Storage\\SessionWrapper extends \\Phpolar\\CsrfProtection\\Storage\\AbstractSession {
}

@enduml

PlantUML version 1.2020.02(Sun Mar 01 04:22:07 CST 2020)
(GPL source distribution)
Java Runtime: OpenJDK Runtime Environment
JVM: OpenJDK 64-Bit Server VM
Java Version: 11.0.19+7-post-Ubuntu-0ubuntu122.04.1
Operating System: Linux
Default Encoding: UTF-8
Language: en
Country: US
--></g></svg>